<?xml version="1.0" standalone="no"?>
<!DOCTYPE svg PUBLIC "-//W3C//DTD SVG 1.1//EN" "http://www.w3.org/Graphics/SVG/1.1/DTD/svg11.dtd" >
<svg>
<metadata>
Created by FontForge 20090914 at Wed Dec 14 04:00:09 2016
 By www-data
Typeface &#194;&#169; 1992 Fonderia Caratteri Svizzera Walter Fruttiger A.G. Data &#194;&#169; 1992 URW. Portions &#194;&#169; 1992 Microsoft Corp. All rights reserved.
</metadata>
<defs>
<font id="EurostileRegular" horiz-adv-x="1256" >
  <font-face 
    font-family="Eurostile"
    font-weight="400"
    font-stretch="normal"
    units-per-em="2048"
    panose-1="2 11 5 4 2 2 2 5 2 4"
    ascent="1638"
    descent="-410"
    x-height="956"
    cap-height="1365"
    bbox="-378 -512 2299 1775"
    underline-thickness="130"
    underline-position="-136"
    unicode-range="U+0020-U+F002"
  />
<missing-glyph horiz-adv-x="682" 
d="M68 0v1365h546v-1365h-546zM546 68v1229h-410v-1229h410z" />
    <glyph glyph-name=".notdef" horiz-adv-x="682" 
d="M68 0v1365h546v-1365h-546zM546 68v1229h-410v-1229h410z" />
    <glyph glyph-name="space" unicode=" " horiz-adv-x="512" 
 />
    <glyph glyph-name="exclam" unicode="!" horiz-adv-x="491" 
d="M322 184v-184h-154v184h154zM328 1365l-20 -988h-131l-17 988h168z" />
    <glyph glyph-name="quotedbl" unicode="&#x22;" horiz-adv-x="639" 
d="M211 819h-99l-19 546h138zM527 819h-99l-20 546h138z" />
    <glyph glyph-name="numbersign" unicode="#" 
d="M1101 525l-16 -92h-236l-68 -433h-109l69 433h-304l-68 -433h-108l69 433h-236l15 92h236l49 320h-236l16 92h236l67 428h108l-68 -428h303l68 428h109l-68 -428h234l-16 -92h-234l-48 -320h236zM805 845h-303l-49 -320h303z" />
    <glyph glyph-name="dollar" unicode="$" horiz-adv-x="1257" 
d="M688 1233l-0.000976562 -473.998c202.667 0 338.834 -25.333 408.501 -76s104.5 -150 104.5 -298c0 -147.333 -33.167 -248.166 -99.5 -302.499s-189.5 -81.5 -369.5 -81.5l-44 -1v-154h-116v154h-99c-50.667 0 -92.667 1.33301 -126 4
c-194.667 15.333 -292 155.666 -292 420.999h151v-25c0 -122 17.5 -198.167 52.5 -228.5s123.5 -45.5 265.5 -45.5l48 -2v505c-206 0 -341.333 23.667 -406 71s-97 146.666 -97 297.999c0 146 33.833 243.667 101.5 293s201.5 74 401.5 74v127h116v-127l57 -1
c167.333 0 280 -23.167 338 -69.5s87 -135.833 87 -268.5l-1 -43h-148l-1 34c0 93.333 -16.167 152.666 -48.5 177.999s-107.833 38 -226.5 38h-57zM571.999 1235l-46.999 0.000976562c-128.667 0 -212.334 -13.833 -251.001 -41.5s-58 -86.834 -58 -177.501
c0 -107.333 19.833 -176.833 59.5 -208.5s126.5 -47.5 260.5 -47.5l36 -1v476zM688 124.003c24.667 -4 43 -6.66699 55 -8c207.333 -16.667 311 73 311 269c0 100 -20.833 165.167 -62.5 195.5s-130.5 45.5 -266.5 45.5l-37 1v-503z" />
    <glyph glyph-name="percent" unicode="%" horiz-adv-x="1609" 
d="M333 1370c136.667 0 220.333 -17.8311 251 -53.498s46 -131.834 46 -288.501s-15.333 -254.334 -46 -293.001s-108.667 -58 -234 -58c-140.667 0 -228.5 19.667 -263.5 59s-52.5 138 -52.5 296c0 144.667 17.833 237.167 53.5 277.5s117.5 60.5 245.5 60.5zM330.999 1298
c-98.667 0 -158.666 -13 -179.999 -39s-32 -98.667 -32 -218c0 -145.333 11.167 -230.333 33.5 -255s100.166 -37 233.499 -37c106 0 159 53 159 159v118v111c0 72.667 -11.5 117.667 -34.5 135s-82.833 26 -179.5 26zM1315 1365l-927 -1365h-93l921 1365h99zM1274 688.002
c136.667 0 220.333 -17.833 251 -53.5s46 -131.834 46 -288.501c0 -157.333 -15.333 -255.166 -46 -293.499s-108.667 -57.5 -234 -57.5c-140.667 0 -228.5 19.667 -263.5 59s-52.5 138 -52.5 296c0 144.667 17.833 237.167 53.5 277.5s117.5 60.5 245.5 60.5zM1272 616.002
c-98.667 0 -158.666 -13 -179.999 -39s-32 -98.667 -32 -218c0 -145.333 11.167 -230.333 33.5 -255s100.166 -37 233.499 -37c106 0 159 53 159 159v118v111c0 72.667 -11.667 117.667 -35 135s-83 26 -179 26z" />
    <glyph glyph-name="ampersand" unicode="&#x26;" horiz-adv-x="1434" 
d="M1054 603l152 0.00292969l1 -36l1 -69c0 -72.667 -5.33301 -137.334 -16 -194.001l239 -197l-84 -107l-202 167c-56.667 -120.667 -209.334 -181 -458.001 -181c-240 0 -395 26.667 -465 80s-105 171.666 -105 354.999c0 120.667 16.167 205 48.5 253
s95.5 81.667 189.5 101c8.66699 2 22.334 5 41.001 9c-82.667 69.333 -124 149 -124 239c0 127.333 28.5 214.166 85.5 260.499s163.833 69.5 320.5 69.5c153.333 0 258 -22.667 314 -68s84 -130 84 -254l-2 -85h-151v51c0 101.333 -13.667 164.333 -41 189
s-97.333 37 -210 37c-102 0 -169.667 -11 -203 -33s-50 -66.667 -50 -134c0 -76 29 -136.667 87 -182l34 -28l514 -428v28v56v70v31zM492 701.003c-103.333 -22.667 -167.167 -49.167 -191.5 -79.5s-36.5 -98.5 -36.5 -204.5c0 -138.667 20.167 -223.5 60.5 -254.5
s151.5 -46.5 333.5 -46.5c218 0 340.333 48.667 367 146z" />
    <glyph glyph-name="quotesingle" unicode="'" horiz-adv-x="323" 
d="M211 819h-99l-19 546h138z" />
    <glyph glyph-name="parenleft" unicode="(" horiz-adv-x="568" 
d="M465 -286v-129.999l-38 -1c-155.333 0 -248.166 41.667 -278.499 125s-45.5 340 -45.5 770s15.167 686.667 45.5 770s123.166 125 278.499 125l38 -1v-130c-97.333 0 -155.5 -24.333 -174.5 -73s-28.5 -197.667 -28.5 -447l1 -244v-245
c0 -248.667 9.5 -397.334 28.5 -446.001s76.833 -73 173.5 -73z" />
    <glyph glyph-name="parenright" unicode=")" horiz-adv-x="568" 
d="M102 1242v129.999l38 1c155.333 0 248.166 -41.667 278.499 -125s45.5 -340 45.5 -770s-15.167 -686.667 -45.5 -770s-123.166 -125 -278.499 -125l-38 1v130c96.667 0 154.5 24.333 173.5 73s28.5 197.334 28.5 446.001v245l1 244c0 249.333 -9.5 398.333 -28.5 447
s-77.167 73 -174.5 73z" />
    <glyph glyph-name="asterisk" unicode="*" horiz-adv-x="1257" 
d="M994 1074l-281 -105l167 -238l-80 -60l-170 247l-183 -247l-80 60l175 238l-279 105l35 100l280 -100v291h102v-291l278 100z" />
    <glyph glyph-name="plus" unicode="+" 
d="M558 210v407h-403v130h403v409h140v-409h403v-130h-403v-407h-140z" />
    <glyph glyph-name="comma" unicode="," horiz-adv-x="406" 
d="M283 184l0.000976562 -197.999c0 -124.667 -45.333 -187 -136 -187c-8.66699 0 -21.334 0.666992 -38.001 2v76c57.333 3.33301 86 32.666 86 87.999l-1 35h-65v184h154z" />
    <glyph glyph-name="hyphen" unicode="-" horiz-adv-x="425" 
d="M3 562h422v-130h-425z" />
    <glyph glyph-name="hyphen" unicode="&#xad;" horiz-adv-x="425" 
d="M3 562h422v-130h-425z" />
    <glyph glyph-name="period" unicode="." horiz-adv-x="400" 
d="M277 184v-184h-154v184h154z" />
    <glyph glyph-name="slash" unicode="/" horiz-adv-x="1323" 
d="M1179 1365l-1200 -1775h-115l1201 1775h114z" />
    <glyph glyph-name="zero" unicode="0" 
d="M628 1379c252.667 0 405 -33.832 457 -101.499s78 -265.834 78 -594.501c0 -313.333 -24.667 -503.333 -74 -570c-63.333 -84.667 -217 -127 -461 -127s-397.667 42.333 -461 127c-49.333 66.667 -74 273 -74 619c0 299.333 27.333 482 82 548s205.667 99 453 99z
M628 1249c-191.333 0 -303.833 -24.667 -337.5 -74s-50.5 -213.333 -50.5 -492c0 -279.333 16.833 -443.666 50.5 -492.999s146.167 -74 337.5 -74s303.833 24.667 337.5 74s50.5 213.666 50.5 492.999c0 278.667 -16.833 442.667 -50.5 492s-146.167 74 -337.5 74z" />
    <glyph glyph-name="one" unicode="1" horiz-adv-x="1257" 
d="M810 1365v-1365h-154v1250l-349 -387l-97 92l378 410h222z" />
    <glyph glyph-name="two" unicode="2" 
d="M1094 130l-0.000976562 -129.999h-983v257c0 144 28 238.333 84 283s189 79 399 103c168 18.667 269.5 44 304.5 76s52.5 115 52.5 249c0 117.333 -19.5 193.5 -58.5 228.5s-124.167 52.5 -255.5 52.5c-164 0 -267.5 -14.167 -310.5 -42.5s-64.5 -96.5 -64.5 -204.5
l2 -102h-151l1 71c0 163.333 34.5 272.166 103.5 326.499s207.167 81.5 414.5 81.5c184 0 307.667 -29.333 371 -88s95 -173 95 -343c0 -163.333 -29.5 -272.5 -88.5 -327.5s-187.167 -92.167 -384.5 -111.5c-173.333 -17.333 -276.666 -41.333 -309.999 -72
s-50 -117.667 -50 -261v-46h829z" />
    <glyph glyph-name="three" unicode="3" 
d="M500 633v131l52 -1c184 0 296.5 11.667 337.5 35s61.5 87 61.5 191c0 120 -17.833 193.333 -53.5 220s-134.167 40 -295.5 40c-148.667 0 -240.5 -13 -275.5 -39s-52.5 -94.333 -52.5 -205v-59h-146l1 54c0 156 30.333 258.167 91 306.5s188.667 72.5 384 72.5
c200.667 0 333.167 -22.5 397.5 -67.5s96.5 -137.833 96.5 -278.5c0 -119.333 -15.333 -201 -46 -245s-92 -71.667 -184 -83v-7c103.333 -14 171.833 -42 205.5 -84s50.5 -120 50.5 -234c0 -158.667 -32.833 -264 -98.5 -316s-198.167 -78 -397.5 -78
c-215.333 0 -356.333 24 -423 72s-100 149.667 -100 305v81h150v-79c0 -116 19.667 -186.5 59 -211.5s151 -37.5 335 -37.5c142.667 0 233 15.833 271 47.5s57 107.5 57 227.5c0 100.667 -18 166.167 -54 196.5s-114.333 45.5 -235 45.5h-130h-58z" />
    <glyph glyph-name="four" unicode="4" 
d="M972 1365v-920h204v-130h-204v-315h-154v315h-764v181l680 869h238zM818 445v821h-3l-634 -821h637z" />
    <glyph glyph-name="five" unicode="5" 
d="M1077 1365l-0.000976562 -130h-766l-7 -414h3c53.333 75.333 173 113 359 113c180 0 302.833 -31 368.5 -93s98.5 -178.667 98.5 -350c0 -209.333 -31.167 -345.833 -93.5 -409.5s-195.166 -95.5 -398.499 -95.5c-202 0 -337.167 23.667 -405.5 71s-102.5 141 -102.5 281
v52h145c0 -123.333 19.167 -199.833 57.5 -229.5s136.166 -44.5 293.499 -44.5c164.667 0 265.334 19 302.001 57s55 142 55 312c0 137.333 -20.5 224.833 -61.5 262.5s-136.167 56.5 -285.5 56.5c-208 0 -322 -43.667 -342 -131h-139v692h919z" />
    <glyph glyph-name="six" unicode="6" horiz-adv-x="1255" 
d="M1082 1020l-150 -0.00390625c2.66699 24.667 4 41 4 49c0 72.667 -18.333 120.834 -55 144.501s-111.667 35.5 -225 35.5c-172 0 -280.833 -14.667 -326.5 -44s-68.5 -99 -68.5 -209v-278h3c58 81.333 189 122 393 122c183.333 0 306 -28 368 -84s93 -166.667 93 -332
c0 -179.333 -32.333 -297.166 -97 -353.499s-200 -84.5 -406 -84.5c-210 0 -348 30.833 -414 92.5s-99 190.834 -99 387.501l-3 248l4 220c0 180 31.333 299.167 94 357.5s190.667 87.5 384 87.5c195.333 0 327.833 -21.667 397.5 -65s104.5 -125.666 104.5 -246.999z
M608 709.996c-150 0 -247.832 -15 -293.499 -45s-68.5 -94.333 -68.5 -193c0 -160 20 -259.333 60 -298s142.333 -58 307 -58c160 0 259.667 15.667 299 47s59 111.666 59 240.999c0 138.667 -19.333 224.334 -58 257.001s-140.334 49 -305.001 49z" />
    <glyph glyph-name="seven" unicode="7" 
d="M1093 1365v-196l-661 -1169h-183l716 1235h-867v130h995z" />
    <glyph glyph-name="eight" unicode="8" horiz-adv-x="1257" 
d="M890 709v-3c96 -19.333 158.833 -49.166 188.5 -89.499s44.5 -115.5 44.5 -225.5c0 -166.667 -31.333 -275.834 -94 -327.501s-195 -77.5 -397 -77.5c-222 0 -365.5 23.833 -430.5 71.5s-97.5 152.834 -97.5 315.501c0 119.333 15 200.333 45 243s94 73.334 192 92.001v3
c-90 19.333 -149 49.166 -177 89.499s-42 115.833 -42 226.5c0 144.667 30.667 239.5 92 284.5s190 67.5 386 67.5c216 0 354.667 -21.833 416 -65.5s92 -142.834 92 -297.501c0 -104 -14.5 -176.333 -43.5 -217s-87.167 -70.667 -174.5 -90zM602 1249
c-155.333 0 -249.667 -12.167 -283 -36.5s-50 -92.833 -50 -205.5c0 -110 20.667 -177.167 62 -201.5s155 -36.5 341 -36.5c124 0 203.167 15.333 237.5 46s51.5 101 51.5 211c0 102 -18.833 164.667 -56.5 188s-138.5 35 -302.5 35zM603.999 639
c-158 0 -256.334 -13.999 -295.001 -41.999s-58 -99.333 -58 -214c0 -108.667 14.167 -179.834 42.5 -213.501s88.5 -50.5 180.5 -50.5l193 -3l128 8c74 9.33301 122.667 32 146 68s35 106.667 35 212c0 102 -21.667 166.667 -65 194s-145.666 41 -306.999 41z" />
    <glyph glyph-name="nine" unicode="9" horiz-adv-x="1257" 
d="M104 348h145l-1 -40c0 -84 20 -137 60 -159s135.333 -33 286 -33c172 0 277 16.833 315 50.5s57 126.834 57 279.501v205h-3c-53.333 -81.333 -190 -122 -410 -122c-173.333 0 -290 27.667 -350 83s-90 162.666 -90 321.999c0 182.667 31.667 302.5 95 359.5
s196.333 85.5 399 85.5c208 0 345.667 -29.667 413 -89s101 -181 101 -365l4 -367l-3 -141c0 -174.667 -33 -290.167 -99 -346.5s-201.667 -84.5 -407 -84.5c-202 0 -338.333 20.833 -409 62.5s-106 122.5 -106 242.5c0 10.667 1 29.667 3 57zM593 1249
c-148.667 0 -241.335 -16.1689 -278.002 -48.502s-55 -114.166 -55 -245.499c0 -128.667 18 -210.167 54 -244.5s122 -51.5 258 -51.5c176.667 0 286.334 13.833 329.001 41.5s64 98.5 64 212.5c0 152.667 -19.667 246.834 -59 282.501s-143.666 53.5 -312.999 53.5z" />
    <glyph glyph-name="colon" unicode=":" horiz-adv-x="400" 
d="M277 184v-184h-154v184h154zM277 956v-184h-154v184h154z" />
    <glyph glyph-name="semicolon" unicode=";" horiz-adv-x="365" 
d="M242 184l0.000976562 -197.999c0 -124.667 -45.333 -187 -136 -187c-8.66699 0 -21.334 0.666992 -38.001 2v76c57.333 3.33301 86 32.666 86 87.999l-1 35h-65v184h154zM232.001 956.001v-184h-154v184h154z" />
    <glyph glyph-name="less" unicode="&#x3c;" horiz-adv-x="887" 
d="M887 1163v-140l-737 -334l737 -335v-139l-887 413v122z" />
    <glyph glyph-name="equal" unicode="=" 
d="M155 918h946v-130h-946v130zM155 577h946v-130h-946v130z" />
    <glyph glyph-name="greater" unicode="&#x3e;" horiz-adv-x="887" 
d="M0 215v140l737 334l-737 334v139l887 -413v-122z" />
    <glyph glyph-name="question" unicode="?" horiz-adv-x="1064" 
d="M541 184v-184h-154v184h154zM546 394l-151.001 -0.00195312l1 30c0 91.333 12.833 155 38.5 191s82.5 70.667 170.5 104l83 32c84 32 126 112.667 126 242c0 112.667 -15.5 183.5 -46.5 212.5s-107.5 43.5 -229.5 43.5c-125.333 0 -204.166 -15.333 -236.499 -46
s-48.5 -106 -48.5 -226l1 -39h-145l1 45c0 162.667 28.833 269.334 86.5 320.001s179.167 76 364.5 76c156 0 261.667 -25.667 317 -77s83 -149.666 83 -294.999c0 -208 -64.333 -335 -193 -381l-84 -30c-91.333 -32.667 -137 -88.667 -137 -168z" />
    <glyph glyph-name="at" unicode="@" horiz-adv-x="1290" 
d="M837 969h101.999v-471l2 -43c0 -72 27.667 -108 83 -108c66 0 99 117 99 351c0 197.333 -22.333 316.833 -67 358.5s-172.667 62.5 -384 62.5c-236 0 -379.167 -24.667 -429.5 -74s-75.5 -189.333 -75.5 -420c0 -245.333 27.833 -395.333 83.5 -450
s209.167 -82 460.5 -82c170.667 0 270.667 27.333 300 82l68 -49c-40 -70 -168.333 -105 -385 -105c-263.333 0 -431.166 35.5 -503.499 106.5s-108.5 236.167 -108.5 495.5c0 254 34.333 415 103 483s231 102 487 102c226 0 371.833 -28.333 437.5 -85s98.5 -183 98.5 -379
c0 -178.667 -13 -301.5 -39 -368.5s-73.667 -100.5 -143 -100.5c-96.667 0 -152.667 36.667 -168 110h-4c-32 -77.333 -113 -116 -243 -116c-100 0 -168.667 25.333 -206 76s-56 144 -56 280c0 132 18.833 222.333 56.5 271s107.167 73 208.5 73
c118 0 191.333 -31.333 220 -94h3v94zM642.999 897c-81.333 0 -133.667 -16.668 -157 -50.001s-35 -108.333 -35 -225c0 -114.667 11.667 -190.167 35 -226.5s72.333 -54.5 147 -54.5c90 0 146.333 18.833 169 56.5s34 131.834 34 282.501c0 144.667 -64.333 217 -193 217z
" />
    <glyph glyph-name="A" unicode="A" horiz-adv-x="1246" 
d="M969 289h-691l-105 -289h-163l500 1365h216l510 -1365h-161zM924 405l-303 834l-299 -834h602z" />
    <glyph glyph-name="B" unicode="B" horiz-adv-x="1264" 
d="M130 0v1365h604c167.333 0 276.833 -23 328.5 -69s77.5 -143.333 77.5 -292c0 -151.333 -58.333 -247 -175 -287v-3c144.667 -34.667 217 -141.667 217 -321c0 -144.667 -28.5 -246.334 -85.5 -305.001s-156.167 -88 -297.5 -88h-669zM284 765.001h405
c128.667 0 211.5 15.333 248.5 46s55.5 99 55.5 205c0 92 -16.167 151.5 -48.5 178.5s-103.5 40.5 -213.5 40.5h-447v-470zM284 130.001h327.002l139 1c117.333 0 194.166 15.167 230.499 45.5s54.5 94.5 54.5 192.5c0 122 -18.333 196.833 -55 224.5
s-136.334 41.5 -299.001 41.5h-397v-505z" />
    <glyph glyph-name="C" unicode="C" horiz-adv-x="1222" 
d="M1025 456h152.998v-52c0 -186 -31.667 -302.167 -95 -348.5s-222.666 -69.5 -477.999 -69.5c-228.667 0 -374 40.833 -436 122.5s-93 273.834 -93 576.501c0 236.667 7 385.5 21 446.5s54 115.5 120 163.5c77.333 56 244.333 84 501 84c174 0 291.167 -27 351.5 -81
s90.5 -158.333 90.5 -313l1 -37h-153l-1 42c0 110 -17.833 180.667 -53.5 212s-116.167 47 -241.5 47c-220 0 -354.333 -18.333 -403 -55s-73 -138.334 -73 -305.001c0 -383.333 16.333 -608 49 -674s144.334 -99 335.001 -99c181.333 0 294.5 14.333 339.5 43
s67.5 100.667 67.5 216z" />
    <glyph glyph-name="D" unicode="D" horiz-adv-x="1338" 
d="M130 0l0.00195312 1365h632c195.333 0 327.666 -43 396.999 -129s104 -250.667 104 -494c0 -296 -30.833 -493.667 -92.5 -593s-184.834 -149 -369.501 -149h-671zM284.002 130h445.001c163.333 0 268.666 32.667 315.999 98s71 211 71 437c0 248 -20.5 405 -61.5 471
s-139.167 99 -294.5 99h-476v-1105z" />
    <glyph glyph-name="E" unicode="E" horiz-adv-x="1020" 
d="M229 1235v-465h693v-130h-693v-510h723v-130h-877v1365h877v-130h-723z" />
    <glyph glyph-name="F" unicode="F" horiz-adv-x="1001" 
d="M284 1235v-477h665v-130h-665v-628h-154v1365h837v-130h-683z" />
    <glyph glyph-name="G" unicode="G" horiz-adv-x="1268" 
d="M617 679h585.003c2.66699 -35.333 4 -85 4 -149c0 -246 -30.167 -398.167 -90.5 -456.5s-217.833 -87.5 -472.5 -87.5c-240.667 0 -395.334 34.5 -464.001 103.5s-103 223.833 -103 464.5l-1 201l1 121c0 202 38.167 336.333 114.5 403s230.166 100 461.499 100
c232 0 381.667 -21.833 449 -65.5s101 -141.167 101 -292.5v-52h-151v34c0 111.333 -22.833 180.166 -68.5 206.499s-164.834 39.5 -357.501 39.5c-178 0 -289.333 -21.167 -334 -63.5s-67 -148.166 -67 -317.499l-2 -181l1 -195c0 -172 24.833 -277.667 74.5 -317
s182.167 -59 397.5 -59c164.667 0 266.5 18.667 305.5 56s58.5 135 58.5 293c0 12.667 -2.66699 40.667 -8 84h-434v130z" />
    <glyph glyph-name="H" unicode="H" horiz-adv-x="1365" 
d="M1236 1365v-1365h-154v633h-798v-633h-154v1365h154v-602h798v602h154z" />
    <glyph glyph-name="I" unicode="I" horiz-adv-x="417" 
d="M284 1365v-1365h-154v1365h154z" />
    <glyph glyph-name="J" unicode="J" horiz-adv-x="1028" 
d="M898 1365l-0.000976562 -963c0 -160.667 -29.333 -270.167 -88 -328.5s-168.667 -87.5 -330 -87.5c-163.333 0 -275.333 24.833 -336 74.5s-91 141.167 -91 274.5c0 62 1 116 3 162h151v-25v-105c0 -111.333 15 -181 45 -209s104 -42 222 -42
c116.667 0 190.834 18.333 222.501 55s47.5 122 47.5 256v938h154z" />
    <glyph glyph-name="K" unicode="K" horiz-adv-x="1235" 
d="M284 1365v-596h135l560 596h199l-624 -658l700 -707h-211l-624 639h-135v-639h-154v1365h154z" />
    <glyph glyph-name="L" unicode="L" horiz-adv-x="993" 
d="M284 1365v-1222h702v-143h-856v1365h154z" />
    <glyph glyph-name="M" unicode="M" horiz-adv-x="1757" 
d="M1628 1365v-1365h-154v1092v82l1 41l1 41h-4l-12 -32c-6 -16 -10 -26.333 -12 -31l-26 -64l-465 -1129h-154l-466 1116l-27 63l-12 32c-3.33301 7.33301 -7.33301 17.666 -12 30.999h-4l1 -37l1 -38v-75v-1092h-154v1365h267l364 -883l58 -143l29 -71l28 -71h4l28 71
c14 34 23.333 57.667 28 71l59 142l362 884h271z" />
    <glyph glyph-name="N" unicode="N" horiz-adv-x="1426" 
d="M1296 1365v-1365h-253l-572 929l-93 153l-46 76l-46 76h-4l1 -51l1 -52v-102v-1029h-154v1365h252l499 -814l130 -214l65 -106l64 -107h4l-1 51l-1 52v102v1036h154z" />
    <glyph glyph-name="O" unicode="O" 
d="M629 1379c258 0 419.333 -37.667 484 -113s97 -263.666 97 -564.999c0 -324.667 -31 -525 -93 -601s-224.667 -114 -488 -114c-262 0 -424.5 37.667 -487.5 113s-94.5 270 -94.5 584v96l2 129c0 181.333 40.833 305.166 122.5 371.499s234.167 99.5 457.5 99.5zM628 1249
c-216 0 -342.334 -24.001 -379.001 -72.001s-55 -212.667 -55 -494c0 -282 18.333 -447 55 -495s163 -72 379 -72c216.667 0 343.334 24 380.001 72s55 213 55 495v89l-1 129c0 150.667 -25.333 246.334 -76 287.001s-170 61 -358 61z" />
    <glyph glyph-name="P" unicode="P" horiz-adv-x="1208" 
d="M130 0v1365h573h52c154 0 259 -29.667 315 -89s84 -170.333 84 -333c0 -156 -29.167 -262.333 -87.5 -319s-167.833 -85 -328.5 -85l-60 -1h-394v-538h-154zM284 668h365c152.667 0 250.5 15.667 293.5 47s64.5 103.333 64.5 216c0 132 -14.5 215.5 -43.5 250.5
s-97.833 52.5 -206.5 52.5l-59 1h-414v-567z" />
    <glyph glyph-name="Q" unicode="Q" horiz-adv-x="1342" 
d="M1322 167l-62.999 -105.001l-122 79c-73.333 -103.333 -242.333 -155 -507 -155c-270 0 -434.5 38.167 -493.5 114.5s-88.5 288.833 -88.5 637.5c0 278.667 33.667 455.167 101 529.5s227.666 111.5 480.999 111.5c258 0 419.333 -37.667 484 -113
s97 -263.666 97 -564.999c0 -226 -8.33301 -374 -25 -444zM606.001 488.999l71.001 105l373 -247c9.33301 48.667 14 134.667 14 258c0 329.333 -16.833 519 -50.5 569s-161.834 75 -384.501 75c-216 0 -342.333 -24 -379 -72s-55 -212.667 -55 -494
c0 -282 18.333 -447 55 -495s162.334 -72 377.001 -72c213.333 0 342.666 35 387.999 105z" />
    <glyph glyph-name="R" unicode="R" horiz-adv-x="1276" 
d="M130 0v1365h650c146.667 0 250 -29 310 -87s90 -158.667 90 -302c0 -126 -16.333 -213.833 -49 -263.5s-95 -81.834 -187 -96.501v-3c144.667 -10.667 217 -98.667 217 -264v-349h-154v314c0 159.333 -69 239 -207 239h-51h-465v-553h-154zM284 683.001h445
c117.333 0 197.333 17.833 240 53.5s64 102.834 64 201.501c0 123.333 -15.833 203.666 -47.5 240.999s-99.5 56 -203.5 56h-498v-552z" />
    <glyph glyph-name="S" unicode="S" horiz-adv-x="1146" 
d="M1066 995l-153.001 -0.00292969c0 110 -18.333 179.833 -55 209.5s-123 44.5 -259 44.5c-161.333 0 -265.333 -14.167 -312 -42.5s-70 -91.5 -70 -189.5c0 -110 18.333 -177 55 -201s145.667 -40.333 327 -49c212.667 -9.33301 347.834 -36.333 405.501 -81
s86.5 -144.667 86.5 -300c0 -168 -33.167 -276.667 -99.5 -326s-212.833 -74 -439.5 -74c-196.667 0 -327.5 24.833 -392.5 74.5s-97.5 149.834 -97.5 300.501l-1 61h153v-34c0 -122 18.667 -197.833 56 -227.5s133 -44.5 287 -44.5c176.667 0 285.334 14.833 326.001 44.5
s61 108.834 61 237.501c0 83.333 -13.833 138.833 -41.5 166.5s-85.5 44.167 -173.5 49.5l-160 8l-152 8c-231.333 16 -347 136 -347 360c0 155.333 33.667 259 101 311s201.666 78 402.999 78c204 0 337 -24.167 399 -72.5s93 -152.166 93 -311.499z" />
    <glyph glyph-name="T" unicode="T" horiz-adv-x="1054" 
d="M606 1222v-1222h-154v1222h-445v143h1040v-143h-441z" />
    <glyph glyph-name="U" unicode="U" horiz-adv-x="1341" 
d="M1058 1365l154.001 -0.000976562v-956c0 -173.333 -34.833 -287.166 -104.5 -341.499s-215.834 -81.5 -438.501 -81.5c-208.667 0 -350.5 26.167 -425.5 78.5s-112.5 151.833 -112.5 298.5v46v956h154v-956c0 -129.333 21 -210.5 63 -243.5s145.333 -49.5 310 -49.5
c178.667 0 290 16.167 334 48.5s66 113.833 66 244.5v956z" />
    <glyph glyph-name="V" unicode="V" horiz-adv-x="1171" 
d="M1016 1365l165 0.000976562l-483 -1365h-220l-488 1365h164l364 -1031l36 -105c13.333 -40.667 24.333 -75.667 33 -105h4c20 67.333 42.333 136.666 67 207.999z" />
    <glyph glyph-name="W" unicode="W" horiz-adv-x="2045" 
d="M2041 1365l-430 -1365h-234l-287 983l-36 123c-2 6.66699 -7.66699 27 -17 61l-18 62h-3l-17 -62l-18 -62l-37 -124l-292 -981h-230l-419 1365h158l294 -981l40 -133l20 -66l19 -67h3l19 67l19 66l39 132l290 982h228l288 -983l39 -131l18 -67l19 -66h3l20 67l20 67
l41 134l300 979h161z" />
    <glyph glyph-name="X" unicode="X" horiz-adv-x="1190" 
d="M1167 1365l-436.001 -659l469 -706h-182l-316 478l-50 75c-2.66699 4 -10.334 16.333 -23.001 37l-24 38h-4l-24 -39c-13.333 -19.333 -21.666 -32 -24.999 -38l-52 -76l-321 -475h-189l488 706l-449 659h186l303 -455l42 -64l21 -32l20 -32h4l20 31
c10.667 18 17.334 28.667 20.001 32l41 63l299 457h182z" />
    <glyph glyph-name="Y" unicode="Y" horiz-adv-x="1152" 
d="M1163 1365l-515.999 -794.999v-570h-154v570l-503 795h179l293 -461l56 -89c7.33301 -10.667 16.666 -25.334 27.999 -44.001l27 -45h4l27 45l27 44l57 89l292 461h183z" />
    <glyph glyph-name="Z" unicode="Z" horiz-adv-x="1161" 
d="M1095 1365v-130l-859 -1102v-3h877v-130h-1065v133l857 1099v3h-832v130h1022z" />
    <glyph glyph-name="bracketleft" unicode="[" horiz-adv-x="567" 
d="M113 1365h349v-116h-195v-1543h195v-116h-349v1775z" />
    <glyph glyph-name="backslash" unicode="\" horiz-adv-x="1323" 
d="M-136 1365h115l1200 -1775h-114z" />
    <glyph glyph-name="bracketright" unicode="]" horiz-adv-x="567" 
d="M454 -410h-349v116h195v1543h-195v116h349v-1775z" />
    <glyph glyph-name="asciicircum" unicode="^" horiz-adv-x="914" 
d="M152 752h-152l365 617h184l365 -617h-153l-306 506z" />
    <glyph glyph-name="underscore" unicode="_" horiz-adv-x="1024" 
d="M0 -136h1024v-130h-1024v130z" />
    <glyph glyph-name="grave" unicode="`" horiz-adv-x="1024" 
d="M358 1351l271 -205l-49 -74l-294 181z" />
    <glyph glyph-name="a" unicode="a" horiz-adv-x="1044" 
d="M269 688l-139.001 0.00195312c0 111.333 25.167 186.166 75.5 224.499s148.833 57.5 295.5 57.5c159.333 0 267 -23.5 323 -70.5s84 -136.5 84 -268.5v-631h-140l11 103l-3 1c-53.333 -78.667 -161.666 -118 -324.999 -118c-241.333 0 -362 97 -362 291
c0 115.333 27 195 81 239s151.667 66 293 66c168 0 268.667 -33 302 -99l3 1v116c0 109.333 -15 180.166 -45 212.499s-95.667 48.5 -197 48.5c-172 0 -258 -48.333 -258 -145c0 -4.66699 0.333008 -14 1 -28zM493.999 473.002c-107.333 0 -177.167 -11.332 -209.5 -33.999
s-48.5 -71.334 -48.5 -146.001c0 -77.333 16 -128.5 48 -153.5s97 -37.5 195 -37.5c197.333 0 296 60 296 180c0 75.333 -19.167 126 -57.5 152s-112.833 39 -223.5 39z" />
    <glyph glyph-name="b" unicode="b" horiz-adv-x="1047" 
d="M123 0l-0.000976562 1365h140v-531l3 -3c32 92.667 136.667 139 314 139c140 0 236.667 -36.333 290 -109s80 -204.334 80 -395.001c0 -180.667 -28.167 -305.834 -84.5 -375.501s-158.166 -104.5 -305.499 -104.5c-150 0 -250 44.333 -300 133l-4 -1l7 -118h-140z
M543.999 854.002c-110 0 -183.667 -23.5 -221 -70.5s-56 -140.5 -56 -280.5c0 -172.667 16.833 -282.667 50.5 -330s111.167 -71 232.5 -71c102.667 0 170.5 24.167 203.5 72.5s49.5 147.5 49.5 297.5c0 158 -16.333 261.167 -49 309.5s-102.667 72.5 -210 72.5z" />
    <glyph glyph-name="c" unicode="c" horiz-adv-x="993" 
d="M780 345l139.999 0.00195312l1 -52c0 -204.667 -134 -307 -402 -307c-172 0 -285.667 32.333 -341 97s-83 198 -83 400c0 189.333 28.167 317.833 84.5 385.5s163.5 101.5 321.5 101.5c155.333 0 261.333 -22.833 318 -68.5s85 -131.5 85 -257.5h-140v25
c0 74 -18.333 123.333 -55 148s-109.667 37 -219 37c-105.333 0 -173 -23.333 -203 -70s-45 -151.334 -45 -314.001c0 -158.667 17.167 -259.667 51.5 -303s114.5 -65 240.5 -65c106.667 0 174.334 14.167 203.001 42.5s43 95.166 43 200.499z" />
    <glyph glyph-name="d" unicode="d" horiz-adv-x="1045" 
d="M922 1365l0.000976562 -1365h-140l7 124l-4 1c-44 -92.667 -146.333 -139 -307 -139c-146.667 0 -246.834 35.667 -300.501 107s-80.5 204.333 -80.5 399c0 179.333 27 303.833 81 373.5s150.667 104.5 290 104.5c174 0 277.667 -45 311 -135l3 2v528h140zM501.001 854
c-103.333 0 -172 -23.834 -206 -71.501s-51 -144.167 -51 -289.5c0 -160 16.833 -265.167 50.5 -315.5s103.5 -75.5 209.5 -75.5c115.333 0 190.333 25.167 225 75.5s52 159.833 52 328.5c0 136.667 -19.167 228.834 -57.5 276.501s-112.5 71.5 -222.5 71.5z" />
    <glyph glyph-name="e" unicode="e" horiz-adv-x="1029" 
d="M788 289h142.999l1 -35c0 -99.333 -30.167 -168.833 -90.5 -208.5s-166.166 -59.5 -317.499 -59.5c-176 0 -291.5 32.167 -346.5 96.5s-82.5 199.5 -82.5 405.5c0 190.667 27.667 318.667 83 384s163.666 98 324.999 98c176 0 291.333 -28.333 346 -85s82 -176 82 -358
v-75h-688c0 -150.667 16.167 -246.667 48.5 -288s107.833 -62 226.5 -62c112.667 0 185.834 9.83301 219.501 29.5s50.5 62.167 50.5 127.5v30zM787.999 561l-1 45c0 103.333 -17 170.5 -51 201.5s-107.333 46.5 -220 46.5c-113.333 0 -186.833 -18.167 -220.5 -54.5
s-50.5 -115.833 -50.5 -238.5h543z" />
    <glyph glyph-name="f" unicode="f" horiz-adv-x="543" 
d="M160 0l-0.000976562 840h-146v116h146v142c0 187.333 96.333 281 289 281c28.667 0 62.334 -2.33301 101.001 -7v-116c-45.333 4.66699 -78.333 7 -99 7c-100.667 0 -151 -50.667 -151 -152v-155h250v-116h-250v-840h-140z" />
    <glyph glyph-name="g" unicode="g" horiz-adv-x="1045" 
d="M923 956l-0.000976562 -1018c0 -138.667 -30 -234 -90 -286s-170 -78 -330 -78c-142.667 0 -240 22 -292 66s-78 126.333 -78 247h135c0 -82 15.167 -135.333 45.5 -160s96.833 -37 199.5 -37c106.667 0 178.334 16 215.001 48s55 94.667 55 188v192l-3 1
c-36 -88.667 -140 -133 -312 -133c-141.333 0 -238.666 34.833 -291.999 104.5s-80 196.834 -80 381.501c0 191.333 27.167 322.166 81.5 392.499s155.166 105.5 302.499 105.5c156.667 0 259 -48 307 -144l3 1l-7 129h140zM505.999 854c-110 0 -181.333 -23.167 -214 -69.5
s-49 -147.833 -49 -304.5c0 -158 16.333 -260.5 49 -307.5s104 -70.5 214 -70.5c111.333 0 184.666 25.833 219.999 77.5s53 159.167 53 322.5c0 144 -17.667 238.667 -53 284s-108.666 68 -219.999 68z" />
    <glyph glyph-name="h" unicode="h" horiz-adv-x="1053" 
d="M263 1365v-527l3 -2c35.333 89.333 134 134 296 134c240 0 360 -106.667 360 -320v-39v-611h-140v611v27c0 144 -73.667 216 -221 216c-118.667 0 -198 -21.167 -238 -63.5s-60 -126.5 -60 -252.5v-538h-140v1365h140z" />
    <glyph glyph-name="i" unicode="i" horiz-adv-x="385" 
d="M263 1365v-157h-140v157h140zM263 956v-956h-140v956h140z" />
    <glyph glyph-name="j" unicode="j" horiz-adv-x="381" 
d="M254 1365v-157h-140v157h140zM254 956l-0.000976562 -1044v-41c0 -158 -65.667 -237 -197 -237c-19.333 0 -41.666 2.33301 -66.999 7v99c8 1.33301 13.333 2 16 2l18 1l58 19c21.333 18 32 68 32 150v1044h140z" />
    <glyph glyph-name="k" unicode="k" horiz-adv-x="881" 
d="M263 1365v-793h64l338 384h176l-409 -439l483 -517h-189l-406 463h-57v-463h-140v1365h140z" />
    <glyph glyph-name="l" unicode="l" horiz-adv-x="386" 
d="M263 1365v-1365h-140v1365h140z" />
    <glyph glyph-name="m" unicode="m" horiz-adv-x="1691" 
d="M123 956h140l-3 -144l3 -3c54 107.333 158 161 312 161c162 0 260.333 -53.667 295 -161h4c60 107.333 169.667 161 329 161c225.333 0 338 -115 338 -345v-625h-140v638c0 84 -15 141 -45 171s-86.667 45 -170 45c-110.667 0 -185.667 -20.833 -225 -62.5
s-59 -121.167 -59 -238.5v-553h-140v625l-2 44c0 123.333 -70.333 185 -211 185c-190.667 0 -286 -103.667 -286 -311v-543h-140v956z" />
    <glyph glyph-name="n" unicode="n" horiz-adv-x="1056" 
d="M123 956h134.999l-4 -130l4 -3c42.667 98 148.667 147 318 147c136.667 0 229.167 -24 277.5 -72s72.5 -140 72.5 -276v-622h-140v610v36c0 82 -15.667 137.167 -47 165.5s-91.666 42.5 -180.999 42.5c-196.667 0 -295 -93 -295 -279v-575h-140v956z" />
    <glyph glyph-name="o" unicode="o" horiz-adv-x="1036" 
d="M518 970c176.667 0 291.334 -30.667 344.001 -92s79 -194.666 79 -399.999s-26.333 -338.666 -79 -399.999s-167.334 -92 -344.001 -92c-176 0 -290.333 30.667 -343 92s-79 194.666 -79 399.999s26.333 338.666 79 399.999s167 92 343 92zM518 854
c-124 0 -200.833 -20.167 -230.5 -60.5s-44.5 -145.5 -44.5 -315.5s14.833 -275.167 44.5 -315.5s106.5 -60.5 230.5 -60.5c124.667 0 201.834 20.167 231.501 60.5s44.5 145.5 44.5 315.5s-14.833 275.167 -44.5 315.5s-106.834 60.5 -231.501 60.5z" />
    <glyph glyph-name="p" unicode="p" horiz-adv-x="1045" 
d="M123 956h139.999l-7 -121l4 -3c48.667 92 153.334 138 314.001 138c142 0 239.667 -36 293 -108s80 -204.667 80 -398c0 -179.333 -27 -303.833 -81 -373.5s-150 -104.5 -288 -104.5c-157.333 0 -261.333 42.333 -312 127h-3v-523h-140v1366zM534.999 854
c-112 0 -185.001 -24.168 -219.001 -72.501s-51 -152.166 -51 -311.499c0 -147.333 18.333 -245.5 55 -294.5s110.334 -73.5 221.001 -73.5c105.333 0 174.833 23.667 208.5 71s50.5 145 50.5 293c0 162.667 -16.333 268 -49 316s-104.667 72 -216 72z" />
    <glyph glyph-name="q" unicode="q" horiz-adv-x="1044" 
d="M922 956v-1366h-140v526l-3 3c-42 -88.667 -146.667 -133 -314 -133c-138 0 -234 36 -288 108s-81 200.333 -81 385s27.333 312.667 82 384s153 107 295 107c156 0 260.333 -45 313 -135l3 3l-7 118h140zM495 854c-103.333 0 -171.167 -25 -203.5 -75
s-48.5 -154.667 -48.5 -314c0 -149.333 16.667 -247.166 50 -293.499s103.333 -69.5 210 -69.5c108.667 0 181.667 23.833 219 71.5s56 141.5 56 281.5c0 169.333 -17.167 278.166 -51.5 326.499s-111.5 72.5 -231.5 72.5z" />
    <glyph glyph-name="r" unicode="r" horiz-adv-x="816" 
d="M137 956h140.001l-14 -110l3 -3c55.333 90 146.666 135 273.999 135c176 0 264 -90.667 264 -272l-1 -66h-138l3 24c2 25.333 3 42.333 3 51c0 98 -53.333 147 -160 147c-156 0 -234 -96.333 -234 -289v-573h-140v956z" />
    <glyph glyph-name="s" unicode="s" horiz-adv-x="970" 
d="M864 706l-139.999 0.000976562c0 66.667 -13.5 108 -40.5 124s-96.5 24 -208.5 24c-104 0 -170 -8.5 -198 -25.5s-42 -57.833 -42 -122.5c0 -98 47 -149.333 141 -154l113 -6l143 -7c173.333 -8.66699 260 -99.334 260 -272.001c0 -107.333 -28.667 -181 -86 -221
s-162.333 -60 -315 -60c-156.667 0 -264.5 19 -323.5 57s-88.5 107.667 -88.5 209l1 52h145l1 -45c0 -62.667 16 -104.5 48 -125.5s95 -31.5 189 -31.5c115.333 0 191.166 11 227.499 33s54.5 68 54.5 138c0 100.667 -45.667 151 -137 151c-212.667 0 -352.5 18 -419.5 54
s-100.5 110.667 -100.5 224c0 107.333 26.5 178.833 79.5 214.5s158.5 53.5 316.5 53.5c253.333 0 380 -76.333 380 -229v-35z" />
    <glyph glyph-name="t" unicode="t" horiz-adv-x="667" 
d="M630 956v-116h-368v-585c0 -102 45.333 -153 136 -153c90 0 135 45.667 135 137l1 47l2 53h130l1 -71c0 -188 -89.333 -282 -268 -282c-184.667 0 -277 78.333 -277 235v34v585h-132v116h132v230h140v-230h368z" />
    <glyph glyph-name="u" unicode="u" horiz-adv-x="1039" 
d="M903 956v-956.001h-140l10 125l-3 3c-48.667 -94.667 -152.667 -142 -312 -142c-223.333 0 -335 111.333 -335 334v636h140v-636c0 -86.667 14.333 -144.667 43 -174s85 -44 169 -44c110 0 185.5 21.833 226.5 65.5s61.5 123.834 61.5 240.501v548h140z" />
    <glyph glyph-name="v" unicode="v" horiz-adv-x="824" 
d="M831 956l-320 -956h-201l-317 956h144l169 -520l53 -163l25 -82l26 -82h4l24 81l24 82l51 162l162 522h156z" />
    <glyph glyph-name="w" unicode="w" horiz-adv-x="1373" 
d="M1367 956l-268 -956h-208l-128 531l-39 162l-18 81l-19 81h-3l-19 -81l-19 -81l-39 -162l-129 -531h-212l-259 956h147l135 -529l42 -166l20 -83l20 -83h4l19 83l20 83l40 165l131 530h204l130 -531l40 -165l19 -82l19 -83h3l21 83l20 83l42 166l134 529h150z" />
    <glyph glyph-name="x" unicode="x" horiz-adv-x="827" 
d="M797 956l-310 -450l347 -506h-167l-253 386l-254 -386h-167l347 500l-311 456h168l217 -349l216 349h167z" />
    <glyph glyph-name="y" unicode="y" horiz-adv-x="796" 
d="M802 956l-271 -1011c-38 -142.667 -80.167 -240.667 -126.5 -294s-112.5 -80 -198.5 -80c-17.333 0 -39.666 2.33301 -66.999 7v116c19.333 -4 35.666 -6.33301 48.999 -7c75.333 -4 131.333 57 168 183l27 94c0.666992 3.33301 3.66699 15.333 9 36h-53l-346 956h149
l147 -426l74 -212l36 -107l37 -106h4l26 106l25 107l54 212l108 426h149z" />
    <glyph glyph-name="z" unicode="z" horiz-adv-x="826" 
d="M92 956h689v-136l-570 -704h570v-116h-737v133l572 707h-524v116z" />
    <glyph glyph-name="braceleft" unicode="{" horiz-adv-x="783" 
d="M300 479c85.333 -40.667 128 -120 128 -238v-341c0 -131.333 57 -197 171 -197h14v-113h-88c-158 0 -237 102.333 -237 307v338c0 101.333 -39 163.666 -117 186.999v113c78 22.667 117 85.334 117 188.001v337c0 203.333 79 305 237 305h88v-111
c-123.333 0 -185 -65.667 -185 -197v-341c0 -118 -42.667 -197 -128 -237z" />
    <glyph glyph-name="bar" unicode="|" horiz-adv-x="140" 
d="M0 1365h140v-1706h-140v1706z" />
    <glyph glyph-name="braceright" unicode="}" horiz-adv-x="783" 
d="M488 477c-85.333 40 -128 118.999 -128 236.999v341c0 131.333 -58.333 197 -175 197h-14v113h90c159.333 0 239 -102.333 239 -307v-338c0 -101.333 37.667 -163.666 113 -186.999v-113c-75.333 -24 -113 -86.333 -113 -187v-338c0 -203.333 -79.667 -305 -239 -305h-90
v111c126 0 189 65.667 189 197v341c0 118 42.667 197.333 128 238z" />
    <glyph glyph-name="asciitilde" unicode="~" horiz-adv-x="984" 
d="M84 1196l-84 54c76.667 154.667 169.667 232 279 232c51.333 0 128 -24.667 230 -74c94 -46 161.333 -69 202 -69c68 0 130.333 49 187 147l86 -51c-76 -150.667 -171.333 -226 -286 -226c-50 0 -108 15.667 -174 47l-118 55c-56.667 27.333 -103 41 -139 41
c-66.667 0 -127.667 -52 -183 -156z" />
    <glyph glyph-name="00a0" unicode="&#xa0;" horiz-adv-x="512" 
 />
    <glyph glyph-name="exclamdown" unicode="&#xa1;" horiz-adv-x="491" 
d="M162 772v184h154v-184h-154zM162 -410l20 989h131l17 -989h-168z" />
    <glyph glyph-name="cent" unicode="&#xa2;" horiz-adv-x="1255" 
d="M662 1005l0.000976562 -750c142.667 0 214 63 214 189l1 53h140l-1 -37c0 -214 -118 -321 -354 -321v-146h-116v146c-140 0 -235.5 36.5 -286.5 109.5s-76.5 209.5 -76.5 409.5c0 306.667 121 460 363 460v133h116v-133c224 0 336 -92.667 336 -278l-1 -44h-140
c0 84.667 -11.833 139.667 -35.5 165s-76.834 40 -159.501 44zM546.001 1008c-89.333 -6.66699 -147.667 -31.5 -175 -74.5s-41 -131.5 -41 -265.5c0 -171.333 13 -281.5 39 -330.5s85 -75.833 177 -80.5v751z" />
    <glyph glyph-name="sterling" unicode="&#xa3;" horiz-adv-x="1257" 
d="M805 664v-129.999h-387v-64l1 -109l-15 -122c-12 -40.667 -45.333 -80.334 -100 -119.001v-3l885 10v-127h-1062v117c91.333 20 137 121.333 137 304v113h-169v130h169v208l-2 121l7 113c24.667 182 169 273 433 273c177.333 0 298.833 -25 364.5 -75
s98.5 -142.333 98.5 -277l-2 -70h-148v34c0 112.667 -16.667 183.834 -50 213.501s-112.333 44.5 -237 44.5c-136 0 -221.5 -14.833 -256.5 -44.5s-52.5 -101.834 -52.5 -216.501l-1 -50v-274h387z" />
    <glyph glyph-name="currency" unicode="&#xa4;" horiz-adv-x="1365" 
d="M119 250l189.999 192.998c-69.333 90.667 -104 187.334 -104 290.001c0 101.333 34.667 198.333 104 291l-195 193l80 80l193 -193c95.333 71.333 195 107 299 107c100.667 0 197.334 -35.333 290.001 -106l194 191l79 -79l-192 -191c70 -94.667 105 -192.667 105 -294
c0 -99.333 -34.333 -195.666 -103 -288.999l193 -193l-79 -80l-193 193c-91.333 -70 -190.333 -105 -297 -105c-97.333 0 -195 35 -293 105l-192 -193zM683.999 1081c-96 0 -177.669 -34.001 -245.002 -102.001s-101 -150 -101 -246
c0 -94.667 33.833 -175.834 101.5 -243.501s149.167 -101.5 244.5 -101.5c94.667 0 175.834 33.833 243.501 101.5s101.5 148.834 101.5 243.501c0 96.667 -33.667 178.834 -101 246.501s-148.666 101.5 -243.999 101.5z" />
    <glyph glyph-name="yen" unicode="&#xa5;" horiz-adv-x="1257" 
d="M920 934h186v-130h-264l-125 -201h389v-130h-408v-473h-154v473h-394v130h375l-121 201h-254v130h178l-259 431h179l376 -638h4l376 638h183z" />
    <glyph glyph-name="brokenbar" unicode="&#xa6;" horiz-adv-x="140" 
d="M0 1365h140v-679h-140v679zM0 314h140v-655h-140v655z" />
    <glyph glyph-name="section" unicode="&#xa7;" horiz-adv-x="1257" 
d="M1071 1017h-134l-1 56c0 74.667 -19 122.667 -57 144s-123.667 32 -257 32c-122.667 0 -200.334 -10.5 -233.001 -31.5s-49 -70.833 -49 -149.5c0 -98.667 33.333 -158.334 100 -179.001l88 -26l306 -91c116.667 -34 190.167 -66.333 220.5 -97s45.5 -87.667 45.5 -171
c0 -142.667 -44 -232.334 -132 -269.001c90 -43.333 135 -133.333 135 -270c0 -148 -30.167 -244.667 -90.5 -290s-189.5 -68 -387.5 -68c-194.667 0 -320.667 23.333 -378 70s-86 149.667 -86 309h138c0 -111.333 16.5 -180.666 49.5 -207.999s117.5 -41 253.5 -41
c164.667 0 267.167 12 307.5 36s60.5 84.667 60.5 182c0 64.667 -10.833 108.167 -32.5 130.5s-74.5 44.833 -158.5 67.5l-421 111c-83.333 22 -138.166 52.167 -164.499 90.5s-39.5 106.5 -39.5 204.5c0 136 52 216 156 240c-68.667 44 -103 124.333 -103 241
c0 138.667 25.5 229.834 76.5 273.501s158.167 65.5 321.5 65.5c204.667 0 333.5 -20.5 386.5 -61.5s79.5 -141.167 79.5 -300.5zM439 386l308 -86c40.667 -11.333 74.667 -17 102 -17c78.667 0 118 69.667 118 209c0 66.667 -54.333 116 -163 148l-295 87
c-46.667 14 -80.667 21 -102 21c-80 0 -120 -64.333 -120 -193c0 -84 50.667 -140.333 152 -169z" />
    <glyph glyph-name="dieresis" unicode="&#xa8;" horiz-adv-x="1024" 
d="M404 1256v-130h-154v130h154zM774 1256v-130h-154v130h154z" />
    <glyph glyph-name="copyright" unicode="&#xa9;" horiz-adv-x="1527" 
d="M987 569l103 -0.00195312l-1 -36c0 -106.667 -18.833 -173.5 -56.5 -200.5s-131.167 -40.5 -280.5 -40.5c-136 0 -222.5 23.333 -259.5 70s-55.5 156 -55.5 328c0 184.667 19 296.834 57 336.501s145.333 59.5 322 59.5c175.333 0 263 -75.667 263 -227l1 -28h-103v30
c0 58.667 -9.83301 96 -29.5 112s-65.5 24 -137.5 24c-126.667 0 -203.5 -9.66699 -230.5 -29s-40.5 -74 -40.5 -164c0 -211.333 9 -334.666 27 -369.999s81.333 -53 190 -53c104.667 0 169.5 7.33301 194.5 22s37.5 52.667 37.5 114zM765 1379
c190.667 0 353.834 -68 489.501 -204s203.5 -300 203.5 -492s-67.833 -356.167 -203.5 -492.5s-298.834 -204.5 -489.501 -204.5c-192.667 0 -357 68 -493 204s-204 300.333 -204 493c0 192 68 356 204 492s300.333 204 493 204zM764 1307
c-168.667 0 -312.666 -60.833 -431.999 -182.5s-179 -268.834 -179 -441.501s59.667 -320 179 -442s263.333 -183 432 -183c168 0 311.5 61 430.5 183s178.5 269.333 178.5 442s-59.333 319.834 -178 441.501s-262.334 182.5 -431.001 182.5z" />
    <glyph glyph-name="ordfeminine" unicode="&#xaa;" horiz-adv-x="837" 
d="M269 1202h-98c0 68 15.333 113.5 46 136.5s92 34.5 184 34.5c170 0 255 -65.333 255 -196v-358h-103l6 45c-42 -35.333 -101.667 -53 -179 -53c-155.333 0 -233 56 -233 168c0 118 77 177 231 177c82 0 140.667 -13.667 176 -41v45c0 60 -8.5 98.5 -25.5 115.5
s-55.833 25.5 -116.5 25.5c-96 0 -144 -25.333 -144 -76zM396 1084c-98 0 -147 -32.667 -147 -98c0 -68.667 48.333 -103 145 -103c109.333 0 164 32.333 164 97c0 69.333 -54 104 -162 104zM119 724h572v-82h-574z" />
    <glyph glyph-name="guillemotleft" unicode="&#xab;" horiz-adv-x="915" 
d="M348 1047l105 -64l-215 -458l238 -459l-99 -66l-275 525zM684 1047l105 -64l-215 -458l238 -459l-99 -66l-275 525z" />
    <glyph glyph-name="logicalnot" unicode="&#xac;" horiz-adv-x="887" 
d="M747 0v416h-747v130h887v-546h-140z" />
    <glyph glyph-name="registered" unicode="&#xae;" horiz-adv-x="1527" 
d="M452 300v779h384c158.667 0 238 -76 238 -228c0 -110.667 -35.667 -178 -107 -202c64 -22 96 -72 96 -150v-199h-102v179c0 83.333 -38 125 -114 125h-29h-264v-304h-102zM554 696h252.001c110.667 0 166 44.667 166 134c0 66 -8.33301 108.667 -25 128
s-53.334 29 -110.001 29h-283v-291zM765.001 1379c190.667 0 353.834 -68 489.501 -204s203.5 -300 203.5 -492s-67.833 -356.167 -203.5 -492.5s-298.834 -204.5 -489.501 -204.5c-192.667 0 -357 68 -493 204s-204 300.333 -204 493c0 192 68 356 204 492
s300.333 204 493 204zM764.001 1307c-168.667 0 -312.666 -60.833 -431.999 -182.5s-179 -268.834 -179 -441.501s59.667 -320 179 -442s263.333 -183 432 -183c168 0 311.5 61 430.5 183s178.5 269.333 178.5 442s-59.333 319.834 -178 441.501
s-262.334 182.5 -431.001 182.5z" />
    <glyph glyph-name="degree" unicode="&#xb0;" horiz-adv-x="749" 
d="M375 1381c77.333 0 143.5 -27.001 198.5 -81.001s82.5 -119 82.5 -195s-27.5 -141 -82.5 -195s-121.167 -81 -198.5 -81c-78 0 -144.5 27 -199.5 81s-82.5 119 -82.5 195c0 76.667 27.5 141.834 82.5 195.501s121.5 80.5 199.5 80.5zM375 1297
c-131.333 0 -197 -64 -197 -192s65.667 -192 197 -192c130.667 0 196 64 196 192s-65.333 192 -196 192z" />
    <glyph glyph-name="plusminus" unicode="&#xb1;" horiz-adv-x="1257" 
d="M148 896h404v354h154v-354h402v-143h-402v-350h-154v350h-404v143zM148 267h960v-143h-960v143z" />
    <glyph glyph-name="twosuperior" unicode="&#xb2;" horiz-adv-x="826" 
d="M713 636v-92h-633v160c0 87.333 18.333 144.833 55 172.5s122.667 48.5 258 62.5c106 11.333 169.333 25.833 190 43.5s31 65.167 31 142.5c0 68 -12 111.5 -36 130.5s-79.667 28.5 -167 28.5c-97.333 0 -158.833 -8 -184.5 -24s-38.5 -54.333 -38.5 -115l1 -68h-108
l1 49c0 97.333 22 162.833 66 196.5s129.667 50.5 257 50.5c124 0 206.833 -17.5 248.5 -52.5s62.5 -104.5 62.5 -208.5c0 -98 -19.167 -163.833 -57.5 -197.5s-120.833 -56.5 -247.5 -68.5c-107.333 -10 -171 -23.5 -191 -40.5s-30 -66.833 -30 -149.5v-20h523z" />
    <glyph glyph-name="threesuperior" unicode="&#xb3;" horiz-adv-x="826" 
d="M325 918l-0.00292969 92.999l40 -1c116 0 186.333 6.33301 211 19s37 48.667 37 108c0 68.667 -10.667 110.334 -32 125.001s-82.333 22 -183 22c-94.667 0 -152 -7.33301 -172 -22s-30 -56 -30 -124v-34h-105v39c0 94 19.833 155.833 59.5 185.5
s121.834 44.5 246.501 44.5c128.667 0 213.834 -13.833 255.501 -41.5s62.5 -84.167 62.5 -169.5c0 -114 -39 -179.333 -117 -196c89.333 -15.333 134 -78 134 -188c0 -96 -21.333 -160 -64 -192s-127.667 -48 -255 -48c-137.333 0 -227.666 14.833 -270.999 44.5
s-65 91.5 -65 185.5l-1 54h108v-54c0 -92.667 41.667 -139 125 -139l140 -2l93 7c58.667 9.33301 88 59 88 149s-59.667 135 -179 135h-82h-44z" />
    <glyph glyph-name="acute" unicode="&#xb4;" horiz-adv-x="1024" 
d="M666 1351l72 -98l-295 -181l-48 74z" />
    <glyph glyph-name="mu" unicode="&#xb5;" horiz-adv-x="825" 
d="M0 -342l-0.000976562 1325h140v-559c0 -227.333 89.333 -341 268 -341c184.667 0 277 120 277 360v540h140v-983h-140v180c-61.333 -137.333 -154.666 -206 -279.999 -206c-112.667 0 -201 50.667 -265 152v-468h-140z" />
    <glyph glyph-name="paragraph" unicode="&#xb6;" horiz-adv-x="1260" 
d="M1092 -410l-140.002 0.000976562v1645h-160v-1645h-140v945h-80l-47 1c-165.333 0 -278.166 28.333 -338.499 85s-90.5 162.667 -90.5 318c0 163.333 28.333 275.166 85 335.499s161.334 90.5 314.001 90.5h52h545v-1775z" />
    <glyph glyph-name="cedilla" unicode="&#xb8;" horiz-adv-x="1024" 
d="M524 -100l97 -54l-139 -195l-79 42z" />
    <glyph glyph-name="onesuperior" unicode="&#xb9;" horiz-adv-x="817" 
d="M526 1365v-819h-102v727l-213 -220l-71 63l245 249h141z" />
    <glyph glyph-name="ordmasculine" unicode="&#xba;" horiz-adv-x="837" 
d="M419 1386c110.667 0 182.834 -18.167 216.501 -54.5s50.5 -114.166 50.5 -233.499c0 -118.667 -16.833 -196.167 -50.5 -232.5s-105.834 -54.5 -216.501 -54.5s-182.834 18.167 -216.501 54.5s-50.5 114.166 -50.5 233.499c0 118.667 16.833 196.167 50.5 232.5
s105.834 54.5 216.501 54.5zM419 1297c-68.667 0 -111 -10.5 -127 -31.5s-24 -76.5 -24 -166.5c0 -91.333 7.83301 -147.333 23.5 -168s58.167 -31 127.5 -31c68.667 0 111 10.5 127 31.5s24 76.833 24 167.5c0 90 -8 145.5 -24 166.5s-58.333 31.5 -127 31.5zM134 724h572
v-82h-574z" />
    <glyph glyph-name="guillemotright" unicode="&#xbb;" horiz-adv-x="915" 
d="M566 1047l246 -522l-275 -525l-99 66l238 459l-215 458zM230 1047l246 -522l-275 -525l-99 66l238 459l-215 458z" />
    <glyph glyph-name="onequarter" unicode="&#xbc;" horiz-adv-x="1924" 
d="M526 1365v-819h-102v727l-213 -220l-71 63l245 249h141zM1477 1365l-926 -1365h-104l922 1365h108zM1735 819v-541h129v-92h-129v-186h-102v186h-490v118l440 515h152zM1633 278v460l-387 -460h387z" />
    <glyph glyph-name="onehalf" unicode="&#xbd;" horiz-adv-x="1925" 
d="M526 1365v-819h-102v727l-213 -220l-71 63l245 249h141zM1477 1365l-926 -1365h-104l922 1365h108zM1812 92v-91.998h-633v160c0 87.333 18.167 144.5 54.5 171.5s122.5 47.833 258.5 62.5c106 11.333 169.333 25.666 190 42.999s31 64.666 31 141.999
c0 68 -12 111.5 -36 130.5s-79.667 28.5 -167 28.5c-97.333 0 -158.833 -8 -184.5 -24s-38.5 -54.333 -38.5 -115l1 -68h-108l1 49c0 97.333 22 162.833 66 196.5s129.667 50.5 257 50.5c124 0 206.833 -17.5 248.5 -52.5s62.5 -104.5 62.5 -208.5
c0 -98 -19.333 -163.833 -58 -197.5s-121 -56.167 -247 -67.5c-108 -10 -171.833 -23.5 -191.5 -40.5s-29.5 -66.5 -29.5 -148.5v-20h523z" />
    <glyph glyph-name="threequarters" unicode="&#xbe;" horiz-adv-x="1924" 
d="M325 918l-0.00292969 92.999l40 -1c116 0 186.333 6.33301 211 19s37 48.667 37 108c0 68.667 -10.667 110.334 -32 125.001s-82.333 22 -183 22c-94.667 0 -152 -7.33301 -172 -22s-30 -56 -30 -124v-34h-105v39c0 94 19.833 155.833 59.5 185.5
s121.834 44.5 246.501 44.5c128.667 0 213.834 -13.833 255.501 -41.5s62.5 -84.167 62.5 -169.5c0 -115.333 -39 -180.666 -117 -195.999c89.333 -14.667 134 -77.334 134 -188.001c0 -96 -21.333 -160 -64 -192s-127.667 -48 -255 -48
c-137.333 0 -227.666 14.833 -270.999 44.5s-65 91.5 -65 185.5l-1 54h108v-54c0 -92.667 41.667 -139 125 -139l140 -2l93 7c58.667 9.33301 88 59 88 149s-59.667 135 -179 135h-82h-44zM1545 1365l-927 -1365h-103l921 1365h109zM1734 818.999v-541h129v-92h-129v-186
h-102v186h-490v118l440 515h152zM1632 277.999v460l-387 -460h387z" />
    <glyph glyph-name="questiondown" unicode="&#xbf;" horiz-adv-x="1064" 
d="M517 772v184h154v-184h-154zM517 562h151.001l-1 -30c0 -91.333 -12.667 -155 -38 -191s-82.333 -70.667 -171 -104l-83 -32c-84 -32 -126 -112.667 -126 -242c0 -113.333 15.5 -184.5 46.5 -213.5s107.5 -43.5 229.5 -43.5c125.333 0 204.166 15.5 236.499 46.5
s48.5 106.5 48.5 226.5v39h144v-45c0 -163.333 -28.833 -270.333 -86.5 -321s-179.5 -76 -365.5 -76c-156 0 -261.667 25.667 -317 77s-83 150 -83 296c0 208.667 64.667 335.667 194 381l83 30c92 32 138 88 138 168v34z" />
    <glyph glyph-name="Agrave" unicode="&#xc0;" horiz-adv-x="1246" 
d="M969 289h-691l-105 -289h-163l500 1365h216l510 -1365h-161zM924 405l-303 834l-299 -834h602zM422 1741l298 -186l-50 -79l-308 154z" />
    <glyph glyph-name="Aacute" unicode="&#xc1;" horiz-adv-x="1246" 
d="M969 289h-691l-105 -289h-163l500 1365h216l510 -1365h-161zM924 405l-303 834l-299 -834h602zM823 1741l61 -111l-308 -154l-50 79z" />
    <glyph glyph-name="Acircumflex" unicode="&#xc2;" horiz-adv-x="1246" 
d="M969 289h-691l-105 -289h-163l500 1365h216l510 -1365h-161zM924 405l-303 834l-299 -834h602zM627 1735l313 -182l-43 -77l-270 124l-283 -124l-38 77z" />
    <glyph glyph-name="Atilde" unicode="&#xc3;" horiz-adv-x="1246" 
d="M969 289h-691l-105 -289h-163l500 1365h216l510 -1365h-161zM924 405l-303 834l-299 -834h602zM867 1698l78.001 -51c-56 -90.667 -118.667 -136 -188 -136c-29.333 0 -75.333 13.667 -138 41c-56 24 -97 36 -123 36c-30 0 -58.667 -24.333 -86 -73l-82 46
c49.333 90.667 107 136 173 136c27.333 0 72.666 -13 135.999 -39c60.667 -25.333 101.667 -38 123 -38c37.333 0 73 26 107 78z" />
    <glyph glyph-name="Adieresis" unicode="&#xc4;" horiz-adv-x="1246" 
d="M969 289h-691l-105 -289h-163l500 1365h216l510 -1365h-161zM924 405l-303 834l-299 -834h602zM515 1660v-130h-154v130h154zM885 1660v-130h-154v130h154z" />
    <glyph glyph-name="Aring" unicode="&#xc5;" horiz-adv-x="1246" 
d="M969 289h-691l-105 -289h-163l500 1365h216l510 -1365h-161zM924 405l-303 834l-299 -834h602zM623 1775c104.667 0 157 -52.333 157 -157s-52.333 -157 -157 -157s-157 52.333 -157 157s52.333 157 157 157zM623 1703c-59.333 0 -89 -28.333 -89 -85s29.667 -85 89 -85
s89 28.333 89 85s-29.667 85 -89 85z" />
    <glyph glyph-name="AE" unicode="&#xc6;" horiz-adv-x="1902" 
d="M1120 1235v-468h682v-130h-682v-507h714v-130h-868v287h-637l-156 -287h-182l759 1365h1084v-130h-714zM966 417v818h-124l-441 -818h565z" />
    <glyph glyph-name="Ccedilla" unicode="&#xc7;" horiz-adv-x="1222" 
d="M1025 456h152.998v-52c0 -186 -31.667 -302.167 -95 -348.5s-222.666 -69.5 -477.999 -69.5c-228.667 0 -374 40.833 -436 122.5s-93 273.834 -93 576.501c0 236.667 7 385.5 21 446.5s54 115.5 120 163.5c77.333 56 244.333 84 501 84c174 0 291.167 -27 351.5 -81
s90.5 -158.333 90.5 -313l1 -37h-153l-1 42c0 110 -17.833 180.667 -53.5 212s-116.167 47 -241.5 47c-220 0 -354.333 -18.333 -403 -55s-73 -138.334 -73 -305.001c0 -383.333 16.333 -608 49 -674s144.334 -99 335.001 -99c181.333 0 294.5 14.333 339.5 43
s67.5 100.667 67.5 216zM640.998 -100l112 -63l-160 -224l-91 49z" />
    <glyph glyph-name="Egrave" unicode="&#xc8;" horiz-adv-x="1020" 
d="M229 1235v-465h693v-130h-693v-510h723v-130h-877v1365h877v-130h-723zM364 1741l297 -186l-50 -79l-307 154z" />
    <glyph glyph-name="Eacute" unicode="&#xc9;" horiz-adv-x="1020" 
d="M229 1235v-465h693v-130h-693v-510h723v-130h-877v1365h877v-130h-723zM697 1741l60 -111l-308 -154l-50 79z" />
    <glyph glyph-name="Ecircumflex" unicode="&#xca;" horiz-adv-x="1020" 
d="M229 1235v-465h693v-130h-693v-510h723v-130h-877v1365h877v-130h-723zM527 1735l314 -182l-43 -77l-271 124l-283 -124l-38 77z" />
    <glyph glyph-name="Edieresis" unicode="&#xcb;" horiz-adv-x="1020" 
d="M229 1235v-465h693v-130h-693v-510h723v-130h-877v1365h877v-130h-723zM416 1660v-130h-154v130h154zM786 1660v-130h-154v130h154z" />
    <glyph glyph-name="Igrave" unicode="&#xcc;" horiz-adv-x="416" 
d="M282 1365v-1365h-154v1365h154zM7 1741l298 -186l-50 -79l-308 154z" />
    <glyph glyph-name="Iacute" unicode="&#xcd;" horiz-adv-x="416" 
d="M284 1365v-1365h-154v1365h154zM408 1741l61 -111l-308 -154l-50 79z" />
    <glyph glyph-name="Icircumflex" unicode="&#xce;" horiz-adv-x="416" 
d="M284 1365v-1365h-154v1365h154zM212 1735l286 -182l-43 -77l-243 124l-256 -124l-38 77z" />
    <glyph glyph-name="Idieresis" unicode="&#xcf;" horiz-adv-x="416" 
d="M284 1365v-1365h-154v1365h154zM175 1660v-130h-154v130h154zM395 1660v-130h-154v130h154z" />
    <glyph glyph-name="Eth" unicode="&#xd0;" horiz-adv-x="1337" 
d="M130 640h-130v116h130v609h630c196 0 328.667 -43 398 -129s104 -250.667 104 -494c0 -296 -31 -493.667 -93 -593s-185.333 -149 -370 -149h-669v640zM284 640v-510h443c164 0 269.667 32.667 317 98s71 211 71 437c0 248 -20.667 405 -62 471s-139.333 99 -294 99h-475
v-479h434v-116h-434z" />
    <glyph glyph-name="Ntilde" unicode="&#xd1;" horiz-adv-x="1426" 
d="M1296 1365v-1365h-253l-572 929l-93 153l-46 76l-46 76h-4l1 -51l1 -52v-102v-1029h-154v1365h252l499 -814l130 -214l65 -106l64 -107h4l-1 51l-1 52v102v1036h154zM958 1698l77.999 -51c-56 -90.667 -119 -136 -189 -136c-29.333 0 -75 13.667 -137 41
c-56 24 -97.333 36 -124 36c-30 0 -58.333 -24.333 -85 -73l-83 46c49.333 90.667 107.333 136 174 136c26.667 0 71.667 -13 135 -39c60.667 -25.333 102 -38 124 -38c36.667 0 72.334 26 107.001 78z" />
    <glyph glyph-name="Ograve" unicode="&#xd2;" 
d="M629 1379c258 0 419.333 -37.667 484 -113s97 -263.666 97 -564.999c0 -324.667 -31 -525 -93 -601s-224.667 -114 -488 -114c-262 0 -424.5 37.667 -487.5 113s-94.5 270 -94.5 584v96l2 129c0 181.333 40.833 305.166 122.5 371.499s234.167 99.5 457.5 99.5zM628 1249
c-216 0 -342.334 -24.001 -379.001 -72.001s-55 -212.667 -55 -494c0 -282 18.333 -447 55 -495s163 -72 379 -72c216.667 0 343.334 24 380.001 72s55 213 55 495v89l-1 129c0 150.667 -25.333 246.334 -76 287.001s-170 61 -358 61zM468.999 1741l298 -186l-50 -79
l-308 154z" />
    <glyph glyph-name="Oacute" unicode="&#xd3;" 
d="M629 1379c258 0 419.333 -37.667 484 -113s97 -263.666 97 -564.999c0 -324.667 -31 -525 -93 -601s-224.667 -114 -488 -114c-262 0 -424.5 37.667 -487.5 113s-94.5 270 -94.5 584v96l2 129c0 181.333 40.833 305.166 122.5 371.499s234.167 99.5 457.5 99.5zM628 1249
c-216 0 -342.334 -24.001 -379.001 -72.001s-55 -212.667 -55 -494c0 -282 18.333 -447 55 -495s163 -72 379 -72c216.667 0 343.334 24 380.001 72s55 213 55 495v89l-1 129c0 150.667 -25.333 246.334 -76 287.001s-170 61 -358 61zM801.999 1741l60 -111l-308 -154
l-49 79z" />
    <glyph glyph-name="Ocircumflex" unicode="&#xd4;" 
d="M629 1379c258 0 419.333 -37.667 484 -113s97 -263.666 97 -564.999c0 -324.667 -31 -525 -93 -601s-224.667 -114 -488 -114c-262 0 -424.5 37.667 -487.5 113s-94.5 270 -94.5 584v96l2 129c0 181.333 40.833 305.166 122.5 371.499s234.167 99.5 457.5 99.5zM628 1249
c-216 0 -342.334 -24.001 -379.001 -72.001s-55 -212.667 -55 -494c0 -282 18.333 -447 55 -495s163 -72 379 -72c216.667 0 343.334 24 380.001 72s55 213 55 495v89l-1 129c0 150.667 -25.333 246.334 -76 287.001s-170 61 -358 61zM631.999 1735l314 -182l-43 -77
l-271 124l-282 -124l-38 77z" />
    <glyph glyph-name="Otilde" unicode="&#xd5;" 
d="M629 1379c258 0 419.333 -37.667 484 -113s97 -263.666 97 -564.999c0 -324.667 -31 -525 -93 -601s-224.667 -114 -488 -114c-262 0 -424.5 37.667 -487.5 113s-94.5 270 -94.5 584v96l2 129c0 181.333 40.833 305.166 122.5 371.499s234.167 99.5 457.5 99.5zM628 1249
c-216 0 -342.334 -24.001 -379.001 -72.001s-55 -212.667 -55 -494c0 -282 18.333 -447 55 -495s163 -72 379 -72c216.667 0 343.334 24 380.001 72s55 213 55 495v89l-1 129c0 150.667 -25.333 246.334 -76 287.001s-170 61 -358 61zM880.999 1698l78 -51
c-56 -90.667 -118.667 -136 -188 -136c-29.333 0 -75.333 13.667 -138 41c-56 24 -97.333 36 -124 36c-29.333 0 -57.666 -24.333 -84.999 -73l-83 46c50 90.667 108 136 174 136c27.333 0 72.333 -13 135 -39c61.333 -25.333 102.666 -38 123.999 -38
c37.333 0 73 26 107 78z" />
    <glyph glyph-name="Odieresis" unicode="&#xd6;" 
d="M629 1379c258 0 419.333 -37.667 484 -113s97 -263.666 97 -564.999c0 -324.667 -31 -525 -93 -601s-224.667 -114 -488 -114c-262 0 -424.5 37.667 -487.5 113s-94.5 270 -94.5 584v96l2 129c0 181.333 40.833 305.166 122.5 371.499s234.167 99.5 457.5 99.5zM628 1249
c-216 0 -342.334 -24.001 -379.001 -72.001s-55 -212.667 -55 -494c0 -282 18.333 -447 55 -495s163 -72 379 -72c216.667 0 343.334 24 380.001 72s55 213 55 495v89l-1 129c0 150.667 -25.333 246.334 -76 287.001s-170 61 -358 61zM520.999 1660v-130h-154v130h154z
M890.999 1660v-130h-154v130h154z" />
    <glyph glyph-name="multiply" unicode="&#xd7;" 
d="M533 683l-339 338l95 96l339 -339l339 339l95 -96l-339 -338l339 -339l-95 -95l-339 338l-339 -338l-95 95z" />
    <glyph glyph-name="Oslash" unicode="&#xd8;" horiz-adv-x="1289" 
d="M20 7l0.00195312 152.001l76 73c-22.667 77.333 -34 233.666 -34 468.999c0 306 32.667 495.5 98 568.5s235.333 109.5 510 109.5c247.333 0 403.666 -45.667 468.999 -137l129 125v-152l-79 -77c24.667 -78.667 37 -214 37 -406c0 -346.667 -29.167 -557.667 -87.5 -633
s-221.833 -113 -490.5 -113c-260.667 0 -428.334 47.667 -503.001 143zM256.002 235.001c28 -55.333 64.833 -89.001 110.5 -101.001s159.5 -18 341.5 -18c155.333 0 255.833 22.833 301.5 68.5s68.5 146.5 68.5 302.5l1 327l-8 145
c-1.33301 12.667 -4.33301 31.334 -9 56.001zM1031 1138c-26.667 50 -63.001 81 -109.001 93s-151.667 18 -317 18c-181.333 0 -292.666 -23.333 -333.999 -70s-62 -172.667 -62 -378c0 -218 5 -366 15 -444z" />
    <glyph glyph-name="Ugrave" unicode="&#xd9;" horiz-adv-x="1341" 
d="M1058 1365l154.001 -0.000976562v-956c0 -173.333 -34.833 -287.166 -104.5 -341.499s-215.834 -81.5 -438.501 -81.5c-208.667 0 -350.5 26.167 -425.5 78.5s-112.5 151.833 -112.5 298.5v46v956h154v-956c0 -129.333 21 -210.5 63 -243.5s145.333 -49.5 310 -49.5
c178.667 0 290 16.167 334 48.5s66 113.833 66 244.5v956zM511.001 1741l298 -186l-50 -79l-308 154z" />
    <glyph glyph-name="Uacute" unicode="&#xda;" horiz-adv-x="1341" 
d="M1058 1365l154.001 -0.000976562v-956c0 -173.333 -34.833 -287.166 -104.5 -341.499s-215.834 -81.5 -438.501 -81.5c-208.667 0 -350.5 26.167 -425.5 78.5s-112.5 151.833 -112.5 298.5v46v956h154v-956c0 -129.333 21 -210.5 63 -243.5s145.333 -49.5 310 -49.5
c178.667 0 290 16.167 334 48.5s66 113.833 66 244.5v956zM844.001 1741l60 -111l-307 -154l-50 79z" />
    <glyph glyph-name="Ucircumflex" unicode="&#xdb;" horiz-adv-x="1341" 
d="M1058 1365l154.001 -0.000976562v-956c0 -173.333 -34.833 -287.166 -104.5 -341.499s-215.834 -81.5 -438.501 -81.5c-208.667 0 -350.5 26.167 -425.5 78.5s-112.5 151.833 -112.5 298.5v46v956h154v-956c0 -129.333 21 -210.5 63 -243.5s145.333 -49.5 310 -49.5
c178.667 0 290 16.167 334 48.5s66 113.833 66 244.5v956zM675.001 1735l313 -182l-43 -77l-270 124l-283 -124l-38 77z" />
    <glyph glyph-name="Udieresis" unicode="&#xdc;" horiz-adv-x="1341" 
d="M1058 1365l154.001 -0.000976562v-956c0 -173.333 -34.833 -287.166 -104.5 -341.499s-215.834 -81.5 -438.501 -81.5c-208.667 0 -350.5 26.167 -425.5 78.5s-112.5 151.833 -112.5 298.5v46v956h154v-956c0 -129.333 21 -210.5 63 -243.5s145.333 -49.5 310 -49.5
c178.667 0 290 16.167 334 48.5s66 113.833 66 244.5v956zM563.001 1660v-130h-154v130h154zM933.001 1660v-130h-154v130h154z" />
    <glyph glyph-name="Yacute" unicode="&#xdd;" horiz-adv-x="1152" 
d="M1163 1365l-515.999 -794.999v-570h-154v570l-503 795h179l293 -461l56 -89c7.33301 -10.667 16.666 -25.334 27.999 -44.001l27 -45h4l27 45l27 44l57 89l292 461h183zM776.001 1741l61 -111l-308 -154l-50 79z" />
    <glyph glyph-name="Thorn" unicode="&#xde;" horiz-adv-x="1208" 
d="M130 0v1365h154v-191h419h52c154 0 259 -29.667 315 -89s84 -170.666 84 -333.999c0 -157.333 -29.167 -264.333 -87.5 -321s-167.833 -85 -328.5 -85l-60 -1h-394v-344h-154zM284 473.999l365 -0.000976562c153.333 0 251.333 15.833 294 47.5s64 103.834 64 216.501
c0 132.667 -14.5 216.667 -43.5 252s-97.833 53 -206.5 53l-59 1h-414v-570z" />
    <glyph glyph-name="germandbls" unicode="&#xdf;" horiz-adv-x="1073" 
d="M130 0l0.000976562 1055v40c0 189.333 124.333 284 373 284c252 0 378 -89.667 378 -269c0 -122.667 -59.333 -198.334 -178 -227.001v-2c100.667 -20.667 168.167 -59.5 202.5 -116.5s51.5 -159.167 51.5 -306.5c0 -175.333 -23.667 -297.833 -71 -367.5
s-131 -104.5 -251 -104.5c-180 0 -270 95.333 -270 286l1 20h137l1 -29c0 -107.333 44 -161 132 -161c72 0 119 22.667 141 68s33 141.333 33 288c0 144.667 -18.5 241.167 -55.5 289.5s-110.167 72.5 -219.5 72.5h-78h-39v121h32l50 1c156 0 234 48.333 234 145
c0 74 -14.833 121.833 -44.5 143.5s-94.834 32.5 -195.501 32.5c-149.333 0 -224 -65 -224 -195v-1068h-140z" />
    <glyph glyph-name="agrave" unicode="&#xe0;" horiz-adv-x="1044" 
d="M269 688l-139.001 0.00195312c0 111.333 25.167 186.166 75.5 224.499s148.833 57.5 295.5 57.5c159.333 0 267 -23.5 323 -70.5s84 -136.5 84 -268.5v-631h-140l11 103l-3 1c-53.333 -78.667 -161.666 -118 -324.999 -118c-241.333 0 -362 97 -362 291
c0 115.333 27 195 81 239s151.667 66 293 66c168 0 268.667 -33 302 -99l3 1v116c0 109.333 -15 180.166 -45 212.499s-95.667 48.5 -197 48.5c-172 0 -258 -48.333 -258 -145c0 -4.66699 0.333008 -14 1 -28zM493.999 473.002c-107.333 0 -177.167 -11.332 -209.5 -33.999
s-48.5 -71.334 -48.5 -146.001c0 -77.333 16 -128.5 48 -153.5s97 -37.5 195 -37.5c197.333 0 296 60 296 180c0 75.333 -19.167 126 -57.5 152s-112.833 39 -223.5 39zM368.998 1351l271 -205l-49 -74l-294 181z" />
    <glyph glyph-name="aacute" unicode="&#xe1;" horiz-adv-x="1044" 
d="M269 688l-139.001 0.00195312c0 111.333 25.167 186.166 75.5 224.499s148.833 57.5 295.5 57.5c159.333 0 267 -23.5 323 -70.5s84 -136.5 84 -268.5v-631h-140l11 103l-3 1c-53.333 -78.667 -161.666 -118 -324.999 -118c-241.333 0 -362 97 -362 291
c0 115.333 27 195 81 239s151.667 66 293 66c168 0 268.667 -33 302 -99l3 1v116c0 109.333 -15 180.166 -45 212.499s-95.667 48.5 -197 48.5c-172 0 -258 -48.333 -258 -145c0 -4.66699 0.333008 -14 1 -28zM493.999 473.002c-107.333 0 -177.167 -11.332 -209.5 -33.999
s-48.5 -71.334 -48.5 -146.001c0 -77.333 16 -128.5 48 -153.5s97 -37.5 195 -37.5c197.333 0 296 60 296 180c0 75.333 -19.167 126 -57.5 152s-112.833 39 -223.5 39zM676.998 1351l72 -98l-295 -181l-48 74z" />
    <glyph glyph-name="acircumflex" unicode="&#xe2;" horiz-adv-x="1044" 
d="M269 688l-139.001 0.00195312c0 111.333 25.167 186.166 75.5 224.499s148.833 57.5 295.5 57.5c159.333 0 267 -23.5 323 -70.5s84 -136.5 84 -268.5v-631h-140l11 103l-3 1c-53.333 -78.667 -161.666 -118 -324.999 -118c-241.333 0 -362 97 -362 291
c0 115.333 27 195 81 239s151.667 66 293 66c168 0 268.667 -33 302 -99l3 1v116c0 109.333 -15 180.166 -45 212.499s-95.667 48.5 -197 48.5c-172 0 -258 -48.333 -258 -145c0 -4.66699 0.333008 -14 1 -28zM493.999 473.002c-107.333 0 -177.167 -11.332 -209.5 -33.999
s-48.5 -71.334 -48.5 -146.001c0 -77.333 16 -128.5 48 -153.5s97 -37.5 195 -37.5c197.333 0 296 60 296 180c0 75.333 -19.167 126 -57.5 152s-112.833 39 -223.5 39zM508.998 1353l262 -209l-56 -71l-206 152l-206 -152l-57 71z" />
    <glyph glyph-name="atilde" unicode="&#xe3;" horiz-adv-x="1044" 
d="M719 1276l80.001 -50c-47.333 -84 -100.333 -126 -159 -126c-30.667 0 -72.667 12 -126 36c-52 22.667 -88.333 34 -109 34c-28 0 -54.333 -22 -79 -66l-80 51c48.667 82.667 103 124 163 124c27.333 0 68.666 -11.333 123.999 -34c58 -24 94.667 -36 110 -36
c26 0 51.333 22.333 76 67zM269.001 688l-139.001 0.00195312c0 111.333 25.167 186.166 75.5 224.499s148.833 57.5 295.5 57.5c159.333 0 267 -23.5 323 -70.5s84 -136.5 84 -268.5v-631h-140l11 103l-3 1c-53.333 -78.667 -161.666 -118 -324.999 -118
c-241.333 0 -362 97 -362 291c0 115.333 27 195 81 239s151.667 66 293 66c168 0 268.667 -33 302 -99l3 1v116c0 109.333 -15 180.166 -45 212.499s-95.667 48.5 -197 48.5c-172 0 -258 -48.333 -258 -145c0 -4.66699 0.333008 -14 1 -28zM494 466.002
c-107.333 0 -177.166 -11.168 -209.499 -33.501s-48.5 -70.166 -48.5 -143.499c0 -76.667 16.167 -127 48.5 -151s101.166 -36 206.499 -36c189.333 0 284 58.667 284 176c0 74 -19.167 123.833 -57.5 149.5s-112.833 38.5 -223.5 38.5z" />
    <glyph glyph-name="adieresis" unicode="&#xe4;" horiz-adv-x="1044" 
d="M269 688l-139.001 0.00195312c0 111.333 25.167 186.166 75.5 224.499s148.833 57.5 295.5 57.5c159.333 0 267 -23.5 323 -70.5s84 -136.5 84 -268.5v-631h-140l11 103l-3 1c-53.333 -78.667 -161.666 -118 -324.999 -118c-241.333 0 -362 97 -362 291
c0 115.333 27 195 81 239s151.667 66 293 66c168 0 268.667 -33 302 -99l3 1v116c0 109.333 -15 180.166 -45 212.499s-95.667 48.5 -197 48.5c-172 0 -258 -48.333 -258 -145c0 -4.66699 0.333008 -14 1 -28zM493.999 473.002c-107.333 0 -177.167 -11.332 -209.5 -33.999
s-48.5 -71.334 -48.5 -146.001c0 -77.333 16 -128.5 48 -153.5s97 -37.5 195 -37.5c197.333 0 296 60 296 180c0 75.333 -19.167 126 -57.5 152s-112.833 39 -223.5 39zM400.998 1256v-130h-154v130h154zM770.998 1256v-130h-154v130h154z" />
    <glyph glyph-name="aring" unicode="&#xe5;" horiz-adv-x="1044" 
d="M269 688l-139.001 0.00195312c0 111.333 25.167 186.166 75.5 224.499s148.833 57.5 295.5 57.5c159.333 0 267 -23.5 323 -70.5s84 -136.5 84 -268.5v-631h-140l11 103l-3 1c-53.333 -78.667 -161.666 -118 -324.999 -118c-241.333 0 -362 97 -362 291
c0 115.333 27 195 81 239s151.667 66 293 66c168 0 268.667 -33 302 -99l3 1v116c0 109.333 -15 180.166 -45 212.499s-95.667 48.5 -197 48.5c-172 0 -258 -48.333 -258 -145c0 -4.66699 0.333008 -14 1 -28zM493.999 473.002c-107.333 0 -177.167 -11.332 -209.5 -33.999
s-48.5 -71.334 -48.5 -146.001c0 -77.333 16 -128.5 48 -153.5s97 -37.5 195 -37.5c197.333 0 296 60 296 180c0 75.333 -19.167 126 -57.5 152s-112.833 39 -223.5 39zM508.998 1365c104.667 0 157 -52.333 157 -157s-52.333 -157 -157 -157s-157 52.333 -157 157
s52.333 157 157 157zM508.998 1293c-59.333 0 -89 -28.333 -89 -85s29.667 -85 89 -85s89 28.333 89 85s-29.667 85 -89 85z" />
    <glyph glyph-name="ae" unicode="&#xe6;" horiz-adv-x="1697" 
d="M1599 463l-681.002 0.000976562v-40c0 -141.333 16.333 -230.166 49 -266.499s113 -54.5 241 -54.5c101.333 0 168 10.5 200 31.5s48 64.5 48 130.5l1 25h142v-40c0 -175.333 -136 -263 -408 -263c-194 0 -311.333 53.667 -352 161h-3
c-41.333 -107.333 -157 -161 -347 -161c-266.667 0 -400 97.667 -400 293c0 109.333 28.167 185.166 84.5 227.499s157.5 63.5 303.5 63.5c155.333 0 254 -32.333 296 -97h3v162c0 92 -16.833 152.667 -50.5 182s-103.167 44 -208.5 44c-163.333 0 -245 -47.333 -245 -142
v-21h-148c8.66699 112 35.834 185.333 81.501 220s137.834 52 276.501 52c212 0 335 -41 369 -123h3c46 82 157 123 333 123c166 0 276 -28.833 330 -86.5s81 -174.834 81 -351.501zM1457 579.001l-0.999023 48c0 89.333 -17.833 149.5 -53.5 180.5
s-104.834 46.5 -207.501 46.5c-108 0 -181.167 -16.667 -219.5 -50s-57.5 -97 -57.5 -191l-1 -34h540zM473.999 454.001c-158.667 0 -238 -56 -238 -168c0 -72 18.333 -120.667 55 -146s107.334 -38 212.001 -38c182.667 0 274 60 274 180
c0 67.333 -20.833 112.833 -62.5 136.5s-121.834 35.5 -240.501 35.5z" />
    <glyph glyph-name="ccedilla" unicode="&#xe7;" horiz-adv-x="993" 
d="M780 345l139.999 0.00195312l1 -52c0 -204.667 -134 -307 -402 -307c-172 0 -285.667 32.333 -341 97s-83 198 -83 400c0 189.333 28.167 317.833 84.5 385.5s163.5 101.5 321.5 101.5c155.333 0 261.333 -22.833 318 -68.5s85 -131.5 85 -257.5h-140v25
c0 74 -18.333 123.333 -55 148s-109.667 37 -219 37c-105.333 0 -173 -23.333 -203 -70s-45 -151.334 -45 -314.001c0 -158.667 17.167 -259.667 51.5 -303s114.5 -65 240.5 -65c106.667 0 174.334 14.167 203.001 42.5s43 95.166 43 200.499zM505.999 -99.998l98 -54
l-140 -195l-79 42z" />
    <glyph glyph-name="egrave" unicode="&#xe8;" horiz-adv-x="1029" 
d="M788 289h142.999l1 -35c0 -99.333 -30.167 -168.833 -90.5 -208.5s-166.166 -59.5 -317.499 -59.5c-176 0 -291.5 32.167 -346.5 96.5s-82.5 199.5 -82.5 405.5c0 190.667 27.667 318.667 83 384s163.666 98 324.999 98c176 0 291.333 -28.333 346 -85s82 -176 82 -358
v-75h-688c0 -150.667 16.167 -246.667 48.5 -288s107.833 -62 226.5 -62c112.667 0 185.834 9.83301 219.501 29.5s50.5 62.167 50.5 127.5v30zM787.999 561l-1 45c0 103.333 -17 170.5 -51 201.5s-107.333 46.5 -220 46.5c-113.333 0 -186.833 -18.167 -220.5 -54.5
s-50.5 -115.833 -50.5 -238.5h543zM373.999 1351l271 -205l-49 -74l-294 181z" />
    <glyph glyph-name="eacute" unicode="&#xe9;" horiz-adv-x="1029" 
d="M788 289h142.999l1 -35c0 -99.333 -30.167 -168.833 -90.5 -208.5s-166.166 -59.5 -317.499 -59.5c-176 0 -291.5 32.167 -346.5 96.5s-82.5 199.5 -82.5 405.5c0 190.667 27.667 318.667 83 384s163.666 98 324.999 98c176 0 291.333 -28.333 346 -85s82 -176 82 -358
v-75h-688c0 -150.667 16.167 -246.667 48.5 -288s107.833 -62 226.5 -62c112.667 0 185.834 9.83301 219.501 29.5s50.5 62.167 50.5 127.5v30zM787.999 561l-1 45c0 103.333 -17 170.5 -51 201.5s-107.333 46.5 -220 46.5c-113.333 0 -186.833 -18.167 -220.5 -54.5
s-50.5 -115.833 -50.5 -238.5h543zM681.999 1351l72 -98l-295 -181l-48 74z" />
    <glyph glyph-name="ecircumflex" unicode="&#xea;" horiz-adv-x="1029" 
d="M788 289h142.999l1 -35c0 -99.333 -30.167 -168.833 -90.5 -208.5s-166.166 -59.5 -317.499 -59.5c-176 0 -291.5 32.167 -346.5 96.5s-82.5 199.5 -82.5 405.5c0 190.667 27.667 318.667 83 384s163.666 98 324.999 98c176 0 291.333 -28.333 346 -85s82 -176 82 -358
v-75h-688c0 -150.667 16.167 -246.667 48.5 -288s107.833 -62 226.5 -62c112.667 0 185.834 9.83301 219.501 29.5s50.5 62.167 50.5 127.5v30zM787.999 561l-1 45c0 103.333 -17 170.5 -51 201.5s-107.333 46.5 -220 46.5c-113.333 0 -186.833 -18.167 -220.5 -54.5
s-50.5 -115.833 -50.5 -238.5h543zM527.999 1353l262 -209l-56 -71l-206 152l-206 -152l-57 71z" />
    <glyph glyph-name="edieresis" unicode="&#xeb;" horiz-adv-x="1029" 
d="M788 289h142.999l1 -35c0 -99.333 -30.167 -168.833 -90.5 -208.5s-166.166 -59.5 -317.499 -59.5c-176 0 -291.5 32.167 -346.5 96.5s-82.5 199.5 -82.5 405.5c0 190.667 27.667 318.667 83 384s163.666 98 324.999 98c176 0 291.333 -28.333 346 -85s82 -176 82 -358
v-75h-688c0 -150.667 16.167 -246.667 48.5 -288s107.833 -62 226.5 -62c112.667 0 185.834 9.83301 219.501 29.5s50.5 62.167 50.5 127.5v30zM787.999 561l-1 45c0 103.333 -17 170.5 -51 201.5s-107.333 46.5 -220 46.5c-113.333 0 -186.833 -18.167 -220.5 -54.5
s-50.5 -115.833 -50.5 -238.5h543zM419.999 1256v-130h-154v130h154zM789.999 1256v-130h-154v130h154z" />
    <glyph glyph-name="igrave" unicode="&#xec;" horiz-adv-x="385" 
d="M263 956v-956h-140v956h140zM25 1351l271 -205l-49 -74l-294 181z" />
    <glyph glyph-name="iacute" unicode="&#xed;" horiz-adv-x="385" 
d="M263 956v-956h-140v956h140zM360 1351l72 -98l-295 -181l-48 74z" />
    <glyph glyph-name="icircumflex" unicode="&#xee;" horiz-adv-x="385" 
d="M263 956v-956h-140v956h140zM192 1353l236 -209l-57 -71l-179 152l-178 -152l-57 71z" />
    <glyph glyph-name="idieresis" unicode="&#xef;" horiz-adv-x="385" 
d="M263 956v-956h-140v956h140zM138 1256v-130h-154v130h154zM402 1256v-130h-154v130h154z" />
    <glyph glyph-name="eth" unicode="&#xf0;" horiz-adv-x="1036" 
d="M531 1147l-195 -108l-46 83l187 104l-96 139h139l57 -83l179 98l46 -83l-170 -94l211 -307c65.333 -95.333 98 -234.666 98 -417.999c0 -205.333 -26.333 -338.666 -79 -399.999s-167.334 -92 -344.001 -92c-176 0 -290.333 30.667 -343 92s-79 194.666 -79 399.999
s26.333 338.666 79 399.999s167.334 92 344.001 92c45.333 0 91 -2 137 -6zM518 854c-124 0 -200.833 -20.167 -230.5 -60.5s-44.5 -145.5 -44.5 -315.5s14.833 -275.167 44.5 -315.5s106.5 -60.5 230.5 -60.5c124.667 0 201.834 20.167 231.501 60.5s44.5 145.5 44.5 315.5
s-14.833 275.167 -44.5 315.5s-106.834 60.5 -231.501 60.5z" />
    <glyph glyph-name="ntilde" unicode="&#xf1;" horiz-adv-x="1056" 
d="M123 956h134.999l-4 -130l4 -3c42.667 98 148.667 147 318 147c136.667 0 229.167 -24 277.5 -72s72.5 -140 72.5 -276v-622h-140v610v36c0 82 -15.667 137.167 -47 165.5s-91.666 42.5 -180.999 42.5c-196.667 0 -295 -93 -295 -279v-575h-140v956zM736.999 1276
l80.001 -50c-47.333 -84 -100.333 -126 -159 -126c-30.667 0 -72.667 12 -126 36c-52 22.667 -88.333 34 -109 34c-28 0 -54.333 -22 -79 -66l-80 51c48.667 82.667 103 124 163 124c27.333 0 68.666 -11.333 123.999 -34c58 -24 94.667 -36 110 -36
c26 0 51.333 22.333 76 67z" />
    <glyph glyph-name="ograve" unicode="&#xf2;" horiz-adv-x="1036" 
d="M518 970c176.667 0 291.334 -30.667 344.001 -92s79 -194.666 79 -399.999s-26.333 -338.666 -79 -399.999s-167.334 -92 -344.001 -92c-176 0 -290.333 30.667 -343 92s-79 194.666 -79 399.999s26.333 338.666 79 399.999s167 92 343 92zM518 854
c-124 0 -200.833 -20.167 -230.5 -60.5s-44.5 -145.5 -44.5 -315.5s14.833 -275.167 44.5 -315.5s106.5 -60.5 230.5 -60.5c124.667 0 201.834 20.167 231.501 60.5s44.5 145.5 44.5 315.5s-14.833 275.167 -44.5 315.5s-106.834 60.5 -231.501 60.5zM378 1351l271 -205
l-49 -74l-294 181z" />
    <glyph glyph-name="oacute" unicode="&#xf3;" horiz-adv-x="1036" 
d="M518 970c176.667 0 291.334 -30.667 344.001 -92s79 -194.666 79 -399.999s-26.333 -338.666 -79 -399.999s-167.334 -92 -344.001 -92c-176 0 -290.333 30.667 -343 92s-79 194.666 -79 399.999s26.333 338.666 79 399.999s167 92 343 92zM518 854
c-124 0 -200.833 -20.167 -230.5 -60.5s-44.5 -145.5 -44.5 -315.5s14.833 -275.167 44.5 -315.5s106.5 -60.5 230.5 -60.5c124.667 0 201.834 20.167 231.501 60.5s44.5 145.5 44.5 315.5s-14.833 275.167 -44.5 315.5s-106.834 60.5 -231.501 60.5zM672 1351l72 -98
l-295 -181l-48 74z" />
    <glyph glyph-name="ocircumflex" unicode="&#xf4;" horiz-adv-x="1036" 
d="M518 970c176.667 0 291.334 -30.667 344.001 -92s79 -194.666 79 -399.999s-26.333 -338.666 -79 -399.999s-167.334 -92 -344.001 -92c-176 0 -290.333 30.667 -343 92s-79 194.666 -79 399.999s26.333 338.666 79 399.999s167 92 343 92zM518 854
c-124 0 -200.833 -20.167 -230.5 -60.5s-44.5 -145.5 -44.5 -315.5s14.833 -275.167 44.5 -315.5s106.5 -60.5 230.5 -60.5c124.667 0 201.834 20.167 231.501 60.5s44.5 145.5 44.5 315.5s-14.833 275.167 -44.5 315.5s-106.834 60.5 -231.501 60.5zM518 1353l262 -209
l-56 -71l-206 152l-206 -152l-57 71z" />
    <glyph glyph-name="otilde" unicode="&#xf5;" horiz-adv-x="1036" 
d="M518 970c176.667 0 291.334 -30.667 344.001 -92s79 -194.666 79 -399.999s-26.333 -338.666 -79 -399.999s-167.334 -92 -344.001 -92c-176 0 -290.333 30.667 -343 92s-79 194.666 -79 399.999s26.333 338.666 79 399.999s167 92 343 92zM518 854
c-124 0 -200.833 -20.167 -230.5 -60.5s-44.5 -145.5 -44.5 -315.5s14.833 -275.167 44.5 -315.5s106.5 -60.5 230.5 -60.5c124.667 0 201.834 20.167 231.501 60.5s44.5 145.5 44.5 315.5s-14.833 275.167 -44.5 315.5s-106.834 60.5 -231.501 60.5zM735 1276l80.001 -50
c-47.333 -84 -100.333 -126 -159 -126c-30.667 0 -72.667 12 -126 36c-52 22.667 -88.333 34 -109 34c-28 0 -54.333 -22 -79 -66l-80 51c48.667 82.667 103 124 163 124c27.333 0 68.666 -11.333 123.999 -34c58 -24 94.667 -36 110 -36c26 0 51.333 22.333 76 67z" />
    <glyph glyph-name="odieresis" unicode="&#xf6;" horiz-adv-x="1036" 
d="M518 970c176.667 0 291.334 -30.667 344.001 -92s79 -194.666 79 -399.999s-26.333 -338.666 -79 -399.999s-167.334 -92 -344.001 -92c-176 0 -290.333 30.667 -343 92s-79 194.666 -79 399.999s26.333 338.666 79 399.999s167 92 343 92zM518 854
c-124 0 -200.833 -20.167 -230.5 -60.5s-44.5 -145.5 -44.5 -315.5s14.833 -275.167 44.5 -315.5s106.5 -60.5 230.5 -60.5c124.667 0 201.834 20.167 231.501 60.5s44.5 145.5 44.5 315.5s-14.833 275.167 -44.5 315.5s-106.834 60.5 -231.501 60.5zM411 1256v-130h-154
v130h154zM781 1256v-130h-154v130h154z" />
    <glyph glyph-name="divide" unicode="&#xf7;" 
d="M628 1109c62 0 93 -30.667 93 -92c0 -62 -31 -93 -93 -93c-61.333 0 -92 31 -92 93c0 61.333 30.667 92 92 92zM628 442c62 0 93 -30.667 93 -92c0 -62 -31 -93 -93 -93c-61.333 0 -92 31 -92 93c0 61.333 30.667 92 92 92zM155 747h946v-130h-946v130z" />
    <glyph glyph-name="oslash" unicode="&#xf8;" horiz-adv-x="1037" 
d="M59 -33v129l69 66c-22 65.333 -33 170.333 -33 315c0 206.667 26.5 340.5 79.5 401.5s169.167 91.5 348.5 91.5c175.333 0 289.333 -33.333 342 -100l112 108v-128l-68 -66c21.333 -63.333 32 -160 32 -290c0 -208 -25.667 -344.667 -77 -410s-159 -98 -323 -98
c-186 0 -307.667 31 -365 93zM278 178c28.667 -50.667 101 -76 217 -76c138 0 222.333 20 253 60s46 150.333 46 331c0 56.667 -2.33301 114.667 -7 174zM763 772c-28.667 54.667 -103.332 82.001 -223.999 82.001c-136.667 0 -220.334 -19.5 -251.001 -58.5
s-46 -145.5 -46 -319.5c0 -74.667 2.66699 -140.334 8 -197.001z" />
    <glyph glyph-name="ugrave" unicode="&#xf9;" horiz-adv-x="1039" 
d="M903 956v-956.001h-140l10 125l-3 3c-48.667 -94.667 -152.667 -142 -312 -142c-223.333 0 -335 111.333 -335 334v636h140v-636c0 -86.667 14.333 -144.667 43 -174s85 -44 169 -44c110 0 185.5 21.833 226.5 65.5s61.5 123.834 61.5 240.501v548h140zM366 1351
l271 -205l-49 -74l-294 181z" />
    <glyph glyph-name="uacute" unicode="&#xfa;" horiz-adv-x="1039" 
d="M903 956v-956.001h-140l10 125l-3 3c-48.667 -94.667 -152.667 -142 -312 -142c-223.333 0 -335 111.333 -335 334v636h140v-636c0 -86.667 14.333 -144.667 43 -174s85 -44 169 -44c110 0 185.5 21.833 226.5 65.5s61.5 123.834 61.5 240.501v548h140zM674 1351l72 -98
l-295 -181l-48 74z" />
    <glyph glyph-name="ucircumflex" unicode="&#xfb;" horiz-adv-x="1039" 
d="M903 956v-956.001h-140l10 125l-3 3c-48.667 -94.667 -152.667 -142 -312 -142c-223.333 0 -335 111.333 -335 334v636h140v-636c0 -86.667 14.333 -144.667 43 -174s85 -44 169 -44c110 0 185.5 21.833 226.5 65.5s61.5 123.834 61.5 240.501v548h140zM520 1353
l262 -209l-56 -71l-206 152l-206 -152l-57 71z" />
    <glyph glyph-name="udieresis" unicode="&#xfc;" horiz-adv-x="1039" 
d="M903 956v-956.001h-140l10 125l-3 3c-48.667 -94.667 -152.667 -142 -312 -142c-223.333 0 -335 111.333 -335 334v636h140v-636c0 -86.667 14.333 -144.667 43 -174s85 -44 169 -44c110 0 185.5 21.833 226.5 65.5s61.5 123.834 61.5 240.501v548h140zM412 1256v-130
h-154v130h154zM782 1256v-130h-154v130h154z" />
    <glyph glyph-name="yacute" unicode="&#xfd;" horiz-adv-x="796" 
d="M802 956l-271 -1011c-38 -142.667 -80.167 -240.667 -126.5 -294s-112.5 -80 -198.5 -80c-17.333 0 -39.666 2.33301 -66.999 7v116c19.333 -4 35.666 -6.33301 48.999 -7c75.333 -4 131.333 57 168 183l27 94c0.666992 3.33301 3.66699 15.333 9 36h-53l-346 956h149
l147 -426l74 -212l36 -107l37 -106h4l26 106l25 107l54 212l108 426h149zM579 1351l72 -98l-295 -181l-48 74z" />
    <glyph glyph-name="thorn" unicode="&#xfe;" horiz-adv-x="1045" 
d="M123 1365h140v-530l4 -3c48 92 150.333 138 307 138c142 0 239.667 -36.167 293 -108.5s80 -204.833 80 -397.5c0 -179.333 -27 -303.833 -81 -373.5s-150 -104.5 -288 -104.5c-157.333 0 -261.333 42.333 -312 127h-3v-524h-140v1776zM535 854
c-112 0 -185.001 -24.168 -219.001 -72.501s-51 -152.166 -51 -311.499c0 -147.333 18.333 -245.5 55 -294.5s110.334 -73.5 221.001 -73.5c105.333 0 174.833 23.667 208.5 71s50.5 145 50.5 293c0 162.667 -16.333 268 -49 316s-104.667 72 -216 72z" />
    <glyph glyph-name="ydieresis" unicode="&#xff;" horiz-adv-x="796" 
d="M802 956l-271 -1011c-38 -142.667 -80.167 -240.667 -126.5 -294s-112.5 -80 -198.5 -80c-17.333 0 -39.666 2.33301 -66.999 7v116c19.333 -4 35.666 -6.33301 48.999 -7c75.333 -4 131.333 57 168 183l27 94c0.666992 3.33301 3.66699 15.333 9 36h-53l-346 956h149
l147 -426l74 -212l36 -107l37 -106h4l26 106l25 107l54 212l108 426h149zM290 1256v-130h-154v130h154zM660 1256v-130h-154v130h154z" />
    <glyph glyph-name="dotlessi" unicode="&#x131;" horiz-adv-x="385" 
d="M263 956v-956h-140v956h140z" />
    <glyph glyph-name="OE" unicode="&#x152;" horiz-adv-x="2020" 
d="M1233 1223l-0.000976562 -453h689v-130h-689v-505h719v-130h-868l4 130h-4c-61.333 -99.333 -197.666 -149 -408.999 -149c-252 0 -414.833 33 -488.5 99s-110.5 212 -110.5 438c0 350 13.333 560 40 630c57.333 150.667 229 226 515 226c243.333 0 394.333 -52 453 -156
h4l-4 130h868v-130h-719zM580.999 1249c-172.667 0 -275.5 -27.8311 -308.5 -83.498s-49.5 -228.834 -49.5 -519.501v-141c0 -69.333 3.33301 -128 10 -176c11.333 -88.667 42.5 -146.334 93.5 -173.001s154.833 -40 311.5 -40c190.667 0 311 19.667 361 59s75 134 75 284
l1 215l4 210l-7 141c-10.667 98.667 -43.5 160.667 -98.5 186s-185.833 38 -392.5 38z" />
    <glyph glyph-name="oe" unicode="&#x153;" horiz-adv-x="1714" 
d="M1617 463h-675.999l-1 -54c0 -128.667 17 -212 51 -250s109 -57 225 -57c108 0 178 11.667 210 35s48 74 48 152h143c0 -124.667 -28.167 -206.334 -84.5 -245.001s-175.166 -58 -356.499 -58c-162 0 -265.667 45 -311 135h-3c-38.667 -90 -155.334 -135 -350.001 -135
c-174 0 -287 31.5 -339 94.5s-78 200.5 -78 412.5c0 192.667 26.167 320.334 78.5 383.001s159.166 94 320.499 94c217.333 0 340 -46.333 368 -139h3c40.667 92.667 154 139 340 139c164.667 0 274.5 -28.833 329.5 -86.5s82.5 -172.5 82.5 -344.5v-76zM1474 579
c0 112.667 -16.1689 186.667 -48.502 222s-100.166 53 -203.499 53c-117.333 0 -194.166 -17.5 -230.499 -52.5s-54.5 -109.167 -54.5 -222.5h537zM517.999 854c-124.667 0 -201.834 -20.167 -231.501 -60.5s-44.5 -145.5 -44.5 -315.5s14.833 -275.167 44.5 -315.5
s106.834 -60.5 231.501 -60.5s201.834 20.167 231.501 60.5s44.5 145.5 44.5 315.5c0 169.333 -14.833 274.333 -44.5 315s-106.834 61 -231.501 61z" />
    <glyph glyph-name="Scaron" unicode="&#x160;" horiz-adv-x="1146" 
d="M1066 995l-153.001 -0.00292969c0 110 -18.333 179.833 -55 209.5s-123 44.5 -259 44.5c-161.333 0 -265.333 -14.167 -312 -42.5s-70 -91.5 -70 -189.5c0 -110 18.333 -177 55 -201s145.667 -40.333 327 -49c212.667 -9.33301 347.834 -36.333 405.501 -81
s86.5 -144.667 86.5 -300c0 -168 -33.167 -276.667 -99.5 -326s-212.833 -74 -439.5 -74c-196.667 0 -327.5 24.833 -392.5 74.5s-97.5 149.834 -97.5 300.501l-1 61h153v-34c0 -122 18.667 -197.833 56 -227.5s133 -44.5 287 -44.5c176.667 0 285.334 14.833 326.001 44.5
s61 108.834 61 237.501c0 83.333 -13.833 138.833 -41.5 166.5s-85.5 44.167 -173.5 49.5l-160 8l-152 8c-231.333 16 -347 136 -347 360c0 155.333 33.667 259 101 311s201.666 78 402.999 78c204 0 337 -24.167 399 -72.5s93 -152.166 93 -311.499zM576.999 1476l-321 182
l38 77l283 -124l271 124l43 -77z" />
    <glyph glyph-name="scaron" unicode="&#x161;" horiz-adv-x="970" 
d="M864 706l-139.999 0.000976562c0 66.667 -13.5 108 -40.5 124s-96.5 24 -208.5 24c-104 0 -170 -8.5 -198 -25.5s-42 -57.833 -42 -122.5c0 -98 47 -149.333 141 -154l113 -6l143 -7c173.333 -8.66699 260 -99.334 260 -272.001c0 -107.333 -28.667 -181 -86 -221
s-162.333 -60 -315 -60c-156.667 0 -264.5 19 -323.5 57s-88.5 107.667 -88.5 209l1 52h145l1 -45c0 -62.667 16 -104.5 48 -125.5s95 -31.5 189 -31.5c115.333 0 191.166 11 227.499 33s54.5 68 54.5 138c0 100.667 -45.667 151 -137 151c-212.667 0 -352.5 18 -419.5 54
s-100.5 110.667 -100.5 224c0 107.333 26.5 178.833 79.5 214.5s158.5 53.5 316.5 53.5c253.333 0 380 -76.333 380 -229v-35zM485.001 1073l-263 209l57 71l206 -152l206 152l56 -71z" />
    <glyph glyph-name="Ydieresis" unicode="&#x178;" horiz-adv-x="1152" 
d="M1163 1365l-515.999 -794.999v-570h-154v570l-503 795h179l293 -461l56 -89c7.33301 -10.667 16.666 -25.334 27.999 -44.001l27 -45h4l27 45l27 44l57 89l292 461h183zM468.001 1660v-130h-154v130h154zM838.001 1660v-130h-154v130h154z" />
    <glyph glyph-name="florin" unicode="&#x192;" 
d="M752 908l-159 -900c-20 -113.333 -52.333 -189 -97 -227s-122.667 -57 -234 -57c-35.333 0 -74 2.33301 -116 7l21 118c44.667 -6 79.667 -9 105 -9c97.333 0 155.333 52 174 156l161 912h-188l21 116h187l37 210c20 113.333 52.667 189 98 227s126 57 242 57
c22 0 57.667 -1.33301 107 -4l-21 -118c-42 4 -77 6 -105 6c-97.333 0 -155.333 -51.667 -174 -155l-39 -223h253l-21 -116h-252z" />
    <glyph glyph-name="circumflex" unicode="&#x2c6;" horiz-adv-x="1024" 
d="M512 1353l262 -209l-56 -71l-206 152l-206 -152l-57 71z" />
    <glyph glyph-name="caron" unicode="&#x2c7;" horiz-adv-x="1024" 
d="M512 1073l-263 209l57 71l206 -152l206 152l56 -71z" />
    <glyph glyph-name="macron" unicode="&#x2c9;" horiz-adv-x="1023" 
d="M261 1246h502v-116h-502v116z" />
    <glyph glyph-name="breve" unicode="&#x2d8;" horiz-adv-x="1024" 
d="M247 1328h97.001c20.667 -94 76.667 -141 168 -141c92 0 148 47 168 141h98c-26.667 -166.667 -115.334 -250 -266.001 -250c-150 0 -238.333 83.333 -265 250z" />
    <glyph glyph-name="dotaccent" unicode="&#x2d9;" horiz-adv-x="1017" 
d="M586 1256v-130h-154v130h154z" />
    <glyph glyph-name="ring" unicode="&#x2da;" horiz-adv-x="1024" 
d="M512 1365c104.667 0 157 -52.333 157 -157s-52.333 -157 -157 -157s-157 52.333 -157 157s52.333 157 157 157zM512 1293c-59.333 0 -89 -28.333 -89 -85s29.667 -85 89 -85s89 28.333 89 85s-29.667 85 -89 85z" />
    <glyph glyph-name="ogonek" unicode="&#x2db;" horiz-adv-x="1024" 
d="M671 0h104.001c-104.667 -60 -157 -116.667 -157 -170c0 -62 41.667 -93 125 -93c25.333 0 50.666 6 75.999 18v-90c-34 -11.333 -65 -17 -93 -17c-128.667 0 -193 53 -193 159c0 76 46 140.333 138 193z" />
    <glyph glyph-name="tilde" unicode="&#x2dc;" horiz-adv-x="1024" 
d="M708 1276l80.001 -50c-47.333 -84 -100.333 -126 -159 -126c-30.667 0 -72.667 12 -126 36c-52 22.667 -88.333 34 -109 34c-28 0 -54.333 -22 -79 -66l-80 51c48.667 82.667 103 124 163 124c27.333 0 68.666 -11.333 123.999 -34c58 -24 94.667 -36 110 -36
c26 0 51.333 22.333 76 67z" />
    <glyph glyph-name="hungarumlaut" unicode="&#x2dd;" horiz-adv-x="1024" 
d="M524 1349l76 -84l-255 -196l-52 64zM792 1349l76 -84l-255 -196l-52 64z" />
    <glyph glyph-name="pi" unicode="&#x3c0;" horiz-adv-x="1064" 
d="M152 0v851h-152v130h1064v-130h-150v-851h-140v851h-482v-851h-140z" />
    <glyph glyph-name="endash" unicode="&#x2013;" 
d="M227 562h803v-130h-803v130z" />
    <glyph glyph-name="emdash" unicode="&#x2014;" horiz-adv-x="1417" 
d="M9 562h1408v-130h-1417z" />
    <glyph glyph-name="quoteleft" unicode="&#x2018;" horiz-adv-x="366" 
d="M86 1008v199c0 124 45.333 186 136 186c10 0 25.333 -0.666992 46 -2v-77c-62.667 0 -94 -29 -94 -87l1 -35h65v-184h-154z" />
    <glyph glyph-name="quoteright" unicode="&#x2019;" horiz-adv-x="406" 
d="M297 1365v-198.999c0 -124.667 -45.333 -187 -136 -187c-8 0 -20.667 0.666992 -38 2v77c57.333 3.33301 86 32.666 86 87.999l-1 35h-65v184h154z" />
    <glyph glyph-name="quotesinglbase" unicode="&#x201a;" horiz-adv-x="406" 
d="M283 184l0.000976562 -197.999c0 -124.667 -45.333 -187 -136 -187c-8.66699 0 -21.334 0.666992 -38.001 2v76c57.333 3.33301 86 32.666 86 87.999l-1 35h-65v184h154z" />
    <glyph glyph-name="quotedblleft" unicode="&#x201c;" horiz-adv-x="653" 
d="M381 1008v199c0 124 45.333 186 136 186c7.33301 0 20 -0.666992 38 -2v-77c-57.333 -3.33301 -86 -32.333 -86 -87l1 -35h65v-184h-154zM86 1008v199c0 124 45.333 186 136 186c10 0 25.333 -0.666992 46 -2v-77c-62.667 0 -94 -29 -94 -87l1 -35h65v-184h-154z" />
    <glyph glyph-name="quotedblright" unicode="&#x201d;" horiz-adv-x="653" 
d="M272 1365v-198.999c0 -124.667 -45.333 -187 -136 -187c-8 0 -20.667 0.666992 -38 2v77c57.333 3.33301 86 32.666 86 87.999l-1 35h-65v184h154zM567 1365v-199c0 -124.667 -45.333 -187 -136 -187c-10.667 0 -26 0.666992 -46 2v77c62.667 0 94 29.333 94 88l-1 35
h-65v184h154z" />
    <glyph glyph-name="quotedblbase" unicode="&#x201e;" horiz-adv-x="653" 
d="M272 184l0.000976562 -197.999c0 -124.667 -45.333 -187 -136 -187c-8.66699 0 -21.334 0.666992 -38.001 2v76c57.333 3.33301 86 32.666 86 87.999l-1 35h-65v184h154zM567.001 184.001l-0.000976562 -198c0 -124.667 -45.333 -187 -136 -187
c-11.333 0 -26.666 0.666992 -45.999 2v76c62.667 0 94 29.333 94 88l-1 35h-65v184h154z" />
    <glyph glyph-name="dagger" unicode="&#x2020;" 
d="M706 1365v-375h313v-116h-313v-1284h-154v1284h-316v116h316v375h154z" />
    <glyph glyph-name="daggerdbl" unicode="&#x2021;" 
d="M706 1365v-375h313v-116h-313v-792h313v-116h-313v-376h-154v376h-316v116h316v792h-316v116h316v375h154z" />
    <glyph glyph-name="bullet" unicode="&#x2022;" horiz-adv-x="568" 
d="M286 978c78 0 144.499 -27.833 199.499 -83.5s82.5 -122.5 82.5 -200.5s-27.667 -144.833 -83 -200.5s-121.666 -83.5 -198.999 -83.5c-78.667 0 -146 27.833 -202 83.5s-84 122.5 -84 200.5c-0 78.667 27.833 145.667 83.5 201s123.167 83 202.5 83z" />
    <glyph glyph-name="ellipsis" unicode="&#x2026;" horiz-adv-x="1223" 
d="M277 184v-184h-154v184h154zM685 184v-184h-154v184h154zM1100 184v-184h-154v184h154z" />
    <glyph glyph-name="perthousand" unicode="&#x2030;" horiz-adv-x="2337" 
d="M333 1370c136.667 0 220.333 -17.8311 251 -53.498s46 -131.834 46 -288.501s-15.333 -254.334 -46 -293.001s-108.667 -58 -234 -58c-140.667 0 -228.5 19.667 -263.5 59s-52.5 138 -52.5 296c0 144.667 17.833 237.167 53.5 277.5s117.5 60.5 245.5 60.5zM330.999 1298
c-98.667 0 -158.666 -13 -179.999 -39s-32 -98.667 -32 -218c0 -145.333 11.167 -230.333 33.5 -255s100.166 -37 233.499 -37c106 0 159 53 159 159v118v111c0 72.667 -11.5 117.667 -34.5 135s-82.833 26 -179.5 26zM1315 1365l-927 -1365h-93l921 1365h99zM1274 688.002
c136.667 0 220.333 -17.833 251 -53.5s46 -131.834 46 -288.501c0 -157.333 -15.333 -255.166 -46 -293.499s-108.667 -57.5 -234 -57.5c-140.667 0 -228.5 19.667 -263.5 59s-52.5 138 -52.5 296c0 144.667 17.833 237.167 53.5 277.5s117.5 60.5 245.5 60.5zM1272 616.002
c-98.667 0 -158.666 -13 -179.999 -39s-32 -98.667 -32 -218c0 -145.333 11.167 -230.333 33.5 -255s100.166 -37 233.499 -37c106 0 159 53 159 159v118v111c0 72.667 -11.667 117.667 -35 135s-83 26 -179 26zM2002 688.002c136 0 219.499 -17.833 250.499 -53.5
s46.5 -131.834 46.5 -288.501c0 -157.333 -15.333 -255.166 -46 -293.499s-109 -57.5 -235 -57.5c-140.667 0 -228.5 19.667 -263.5 59s-52.5 138 -52.5 296c0 144.667 17.833 237.167 53.5 277.5s117.834 60.5 246.501 60.5zM1999 616.002c-98 0 -157.834 -13 -179.501 -39
s-32.5 -98.667 -32.5 -218c0 -145.333 11.333 -230.333 34 -255s100.334 -37 233.001 -37c106.667 0 160 53 160 159v118v111c0 72.667 -11.667 117.667 -35 135s-83.333 26 -180 26z" />
    <glyph glyph-name="guilsinglleft" unicode="&#x2039;" horiz-adv-x="578" 
d="M348 1047l105 -64l-215 -458l238 -459l-99 -66l-275 525z" />
    <glyph glyph-name="guilsinglright" unicode="&#x203a;" horiz-adv-x="578" 
d="M230 1047l246 -522l-275 -525l-99 66l238 459l-215 458z" />
    <glyph glyph-name="Euro" unicode="&#x20ac;" 
d="M1188 404c0 -140 -20.6611 -240.667 -61.9941 -302c-37.333 -55.333 -100.333 -90.333 -189 -105c-48 -7.33301 -155.333 -11 -322 -11c-215.333 0 -354 41 -416 123c-48 62.667 -77.333 191.667 -88 387h-102l30 130h67v59v70h-97l30 130h69
c3.33301 122.667 9.66602 205 18.999 247c14 60.667 54 115 120 163c77.333 56 237.666 84 480.999 84c174 0 291.333 -27 352 -81c56 -50 86 -154.333 90 -313l1 -37h-153l-1 42c-2.66699 112.667 -20.334 183.334 -53.001 212.001c-35.333 31.333 -116 47 -242 47
c-206.667 0 -334.334 -18.333 -383.001 -55s-73 -138.334 -73 -305.001v-4h596l-30 -130h-565c0 -29.333 0.666992 -72.333 2 -129h533l-30 -130h-498c8 -148 21.667 -241.667 41 -281c32.667 -66 137.667 -99 315 -99c181.333 0 295.166 14.667 341.499 44
s68.166 101 65.499 215l-2 81h153v-52z" />
    <glyph glyph-name="trademark" unicode="&#x2122;" horiz-adv-x="1630" 
d="M357 1273v-686h-102v686h-258v92h617v-92h-257zM1562 1365v-778.001h-102v618v15v31v14c-2 -6 -3.66699 -10 -5 -12l-6 -15l-6 -14l-272 -637h-99l-272 629l-6 12l-6 14c-1.33301 2.66699 -3.33301 7.66699 -6 15v-18v-17v-17v-618h-102v778h166l213 -499l34 -80l16 -40
l11 -26c6 12.667 10 21.334 12 26.001l16 40l34 80l212 499h168z" />
    <glyph glyph-name="Omega" unicode="&#x2126;" horiz-adv-x="1249" 
d="M0 0l0.00195312 130h375c-250 144.667 -375 349.667 -375 615c0 183.333 60.333 338 181 464s268.667 189 444 189s323.166 -63 443.499 -189s180.5 -280.667 180.5 -464c0 -266 -125 -471 -375 -615h375v-130h-536v118c259.333 148 389 351.333 389 610
c0 150 -46.333 277.5 -139 382.5s-205.334 157.5 -338.001 157.5c-134.667 0 -248 -52 -340 -156s-138 -232.333 -138 -385c0 -259.333 129.667 -462.333 389 -609v-118h-536z" />
    <glyph glyph-name="partialdiff" unicode="&#x2202;" horiz-adv-x="895" 
d="M113 1248l18.999 124.999c242 -34 429.667 -127.5 563 -280.5s200 -351.167 200 -594.5c0 -155.333 -41 -281 -123 -377s-189.667 -144 -323 -144c-122.667 0 -228.167 45.333 -316.5 136s-132.5 199.334 -132.5 326.001c0 124 41.167 230.333 123.5 319
s181.5 133 297.5 133c126 0 230 -52 312 -156c-6 14.667 -10.333 25.667 -13 33c-111.333 278.667 -313.666 438.667 -606.999 480zM456.999 781.999c-86.667 0 -160 -33.999 -220 -101.999s-90 -151 -90 -249c0 -94.667 29.667 -175.834 89 -243.501
s130.333 -101.5 213 -101.5c85.333 0 156.5 34.5 213.5 103.5s85.5 155.167 85.5 258.5c0 96.667 -27.5 176.5 -82.5 239.5s-124.5 94.5 -208.5 94.5z" />
    <glyph glyph-name="Delta" unicode="&#x2206;" horiz-adv-x="1249" 
d="M0 0l548 1365h150l551 -1365h-1249zM201 130h845l-423 1064z" />
    <glyph glyph-name="product" unicode="&#x220f;" horiz-adv-x="1277" 
d="M0 1536h1277v-130h-163v-1788h163v-130h-471v130h168v1788h-672v-1788h169v-130h-471v130h162v1788h-162v130z" />
    <glyph glyph-name="summation" unicode="&#x2211;" horiz-adv-x="1182" 
d="M1163 1536v-464h-128l-12 334h-867l518 -851l-518 -937h886l7 334h133v-464h-1182v147l510 920l-510 839v142h1163z" />
    <glyph glyph-name="fraction" unicode="&#x2215;" horiz-adv-x="273" 
d="M652 1365l-927 -1365h-103l922 1365h108z" />
    <glyph glyph-name="periodcentered" unicode="&#x2219;" horiz-adv-x="400" 
d="M277 566v-184h-154v184h154z" />
    <glyph glyph-name="radical" unicode="&#x221a;" horiz-adv-x="1365" 
d="M1365 1697v-130h-404l-450 -1567h-171l-172 617h-168v130h282l79 -270c6 -20 16 -63.667 30 -131l24 -119l7 -32h10c4.66699 22.667 7.66699 36.667 9 42l32 135l52 216l91 316l225 793h524z" />
    <glyph glyph-name="infinity" unicode="&#x221e;" horiz-adv-x="1290" 
d="M648 603c-102 -145.333 -214.667 -217.999 -338 -217.999c-206.667 0 -310 104.333 -310 313c0 91.333 29 166.166 87 224.499s132.667 87.5 224 87.5c122.667 0 233 -72.667 331 -218c98.667 145.333 212 218 340 218c205.333 0 308 -104.667 308 -314
c0 -208 -102 -312 -306 -312c-126.667 0 -238.667 73 -336 219zM715 697.001c84 -131.333 169.667 -197 257 -197c123.333 0 185 66.667 185 200c0 129.333 -62.333 194 -187 194c-84.667 0 -169.667 -65.667 -255 -197zM574 696.001c-82 132 -167.334 198 -256.001 198
c-123.333 0 -185 -66.333 -185 -199c0 -129.333 62.333 -194 187 -194c84.667 0 169.334 65 254.001 195z" />
    <glyph glyph-name="integral" unicode="&#x222b;" horiz-adv-x="618" 
d="M0 -490l32 124c34 -9.33301 64 -14 90 -14c50 0 82 14.167 96 42.5s21 93.833 21 196.5v1281c0 160 16 266 48 318s97.667 78 197 78c37.333 0 82 -7.66699 134 -23l-32 -124c-34 11.333 -63.667 17 -89 17c-78 0 -117 -67.333 -117 -202l-1 -100v-1220
c0 -160.667 -17.167 -266.5 -51.5 -317.5s-105.5 -76.5 -213.5 -76.5c-40.667 0 -78.667 6.66699 -114 20z" />
    <glyph glyph-name="approxequal" unicode="&#x2248;" horiz-adv-x="984" 
d="M84 712l-84 54c72.667 154.667 165.667 232 279 232c51.333 0 128 -25 230 -75c94 -46 161.333 -69 202 -69c68 0 130.333 49.333 187 148l86 -50c-76.667 -152 -172 -228 -286 -228c-50.667 0 -108.667 15.667 -174 47l-118 56c-56.667 27.333 -103 41 -139 41
c-67.333 0 -128.333 -52 -183 -156zM84 376l-83.999 54c72 154.667 165 232 279 232c51.333 0 128 -25 230 -75c94 -46 161.333 -69 202 -69c67.333 0 129.666 49.333 186.999 148l86 -51c-76 -151.333 -171.333 -227 -286 -227c-50 0 -108 15.667 -174 47l-118 56
c-56.667 27.333 -102.667 41 -138 41c-68.667 0 -130 -52 -184 -156z" />
    <glyph glyph-name="notequal" unicode="&#x2260;" horiz-adv-x="888" 
d="M490 910l112 231l98 -38l-92 -193h280v-125h-338l-92 -193h430v-125h-488l-114 -237l-97 38l94 199h-283v125h341l92 193h-433v125h490z" />
    <glyph glyph-name="lessequal" unicode="&#x2264;" horiz-adv-x="887" 
d="M887 1239v-134l-737 -326l737 -325v-134l-887 396v123zM887 259v-130h-887v130h887z" />
    <glyph glyph-name="greaterequal" unicode="&#x2265;" horiz-adv-x="887" 
d="M0 320v134l737 326l-737 325v134l887 -401v-122zM0 129v130h887v-130h-887z" />
    <glyph glyph-name="lozenge" unicode="&#x25ca;" horiz-adv-x="1063" 
d="M532 1419l531 -736l-531 -736l-532 736zM532 1147l-337 -464l337 -463l337 463z" />
    <glyph glyph-name="fi" unicode="&#xf001;" horiz-adv-x="935" 
d="M160 0l-0.000976562 840h-146v116h146v142c0 187.333 96.333 281 289 281c28.667 0 62.334 -2.33301 101.001 -7v-116c-45.333 4.66699 -78.333 7 -99 7c-100.667 0 -151 -50.667 -151 -152v-155h250v-116h-250v-840h-140zM812.999 1365v-157h-140v157h140zM812.999 956
v-956h-140v956h140z" />
    <glyph glyph-name="fl" unicode="&#xf002;" horiz-adv-x="935" 
d="M160 0l-0.000976562 840h-146v116h146v142c0 187.333 96.333 281 289 281c28.667 0 62.334 -2.33301 101.001 -7v-116c-45.333 4.66699 -78.333 7 -99 7c-100.667 0 -151 -50.667 -151 -152v-155h250v-116h-250v-840h-140zM812.999 1365v-1365h-140v1365h140z" />
    <glyph glyph-name="glyph1" horiz-adv-x="0" 
 />
    <glyph glyph-name="glyph2" horiz-adv-x="682" 
 />
    <glyph glyph-name="glyph237" horiz-adv-x="1246" 
d="M515 1660v-130h-154v130h154zM885 1660v-130h-154v130h154z" />
    <glyph glyph-name="glyph238" horiz-adv-x="1246" 
d="M823 1741l61 -111l-308 -154l-50 79z" />
    <glyph glyph-name="glyph239" horiz-adv-x="1246" 
d="M422 1741l298 -186l-50 -79l-308 154z" />
    <glyph glyph-name="glyph240" horiz-adv-x="1246" 
d="M627 1735l313 -182l-43 -77l-270 124l-283 -124l-38 77z" />
    <glyph glyph-name="glyph241" horiz-adv-x="1246" 
d="M867 1698l78.001 -51c-56 -90.667 -118.667 -136 -188 -136c-29.333 0 -75.333 13.667 -138 41c-56 24 -97 36 -123 36c-30 0 -58.667 -24.333 -86 -73l-82 46c49.333 90.667 107 136 173 136c27.333 0 72.666 -13 135.999 -39c60.667 -25.333 101.667 -38 123 -38
c37.333 0 73 26 107 78z" />
    <glyph glyph-name="glyph242" horiz-adv-x="1246" 
d="M623 1775c104.667 0 157 -52.333 157 -157s-52.333 -157 -157 -157s-157 52.333 -157 157s52.333 157 157 157zM623 1703c-59.333 0 -89 -28.333 -89 -85s29.667 -85 89 -85s89 28.333 89 85s-29.667 85 -89 85z" />
    <glyph glyph-name="glyph243" horiz-adv-x="1020" 
d="M416 1660v-130h-154v130h154zM786 1660v-130h-154v130h154z" />
    <glyph glyph-name="glyph244" horiz-adv-x="1020" 
d="M697 1741l60 -111l-308 -154l-50 79z" />
    <glyph glyph-name="glyph245" horiz-adv-x="1020" 
d="M364 1741l297 -186l-50 -79l-307 154z" />
    <glyph glyph-name="glyph246" horiz-adv-x="1020" 
d="M527 1735l314 -182l-43 -77l-271 124l-283 -124l-38 77z" />
    <glyph glyph-name="glyph247" horiz-adv-x="416" 
d="M175 1660v-130h-154v130h154zM395 1660v-130h-154v130h154z" />
    <glyph glyph-name="glyph248" horiz-adv-x="416" 
d="M408 1741l61 -111l-308 -154l-50 79z" />
    <glyph glyph-name="glyph249" horiz-adv-x="416" 
d="M7 1741l298 -186l-50 -79l-308 154z" />
    <glyph glyph-name="glyph250" horiz-adv-x="416" 
d="M212 1735l286 -182l-43 -77l-243 124l-256 -124l-38 77z" />
    <glyph glyph-name="glyph251" horiz-adv-x="1426" 
d="M958 1698l77.999 -51c-56 -90.667 -119 -136 -189 -136c-29.333 0 -75 13.667 -137 41c-56 24 -97.333 36 -124 36c-30 0 -58.333 -24.333 -85 -73l-83 46c49.333 90.667 107.333 136 174 136c26.667 0 71.667 -13 135 -39c60.667 -25.333 102 -38 124 -38
c36.667 0 72.334 26 107.001 78z" />
    <glyph glyph-name="glyph252" 
d="M520 1660v-130h-154v130h154zM890 1660v-130h-154v130h154z" />
    <glyph glyph-name="glyph253" 
d="M801 1741l60 -111l-308 -154l-49 79z" />
    <glyph glyph-name="glyph254" 
d="M468 1741l298 -186l-50 -79l-308 154z" />
    <glyph glyph-name="glyph255" 
d="M631 1735l314 -182l-43 -77l-271 124l-282 -124l-38 77z" />
    <glyph glyph-name="glyph256" 
d="M880 1698l78 -51c-56 -90.667 -118.667 -136 -188 -136c-29.333 0 -75.333 13.667 -138 41c-56 24 -97.333 36 -124 36c-29.333 0 -57.666 -24.333 -84.999 -73l-83 46c50 90.667 108 136 174 136c27.333 0 72.333 -13 135 -39c61.333 -25.333 102.666 -38 123.999 -38
c37.333 0 73 26 107 78z" />
    <glyph glyph-name="glyph257" horiz-adv-x="1146" 
d="M577 1476l-321 182l38 77l283 -124l271 124l43 -77z" />
    <glyph glyph-name="glyph259" horiz-adv-x="1342" 
d="M563 1660v-130h-154v130h154zM933 1660v-130h-154v130h154z" />
    <glyph glyph-name="glyph260" horiz-adv-x="1342" 
d="M844 1741l60 -111l-307 -154l-50 79z" />
    <glyph glyph-name="glyph261" horiz-adv-x="1342" 
d="M511 1741l298 -186l-50 -79l-308 154z" />
    <glyph glyph-name="glyph262" horiz-adv-x="1342" 
d="M675 1735l313 -182l-43 -77l-270 124l-283 -124l-38 77z" />
    <glyph glyph-name="glyph263" horiz-adv-x="1151" 
d="M776 1741l61 -111l-308 -154l-50 79z" />
    <glyph glyph-name="glyph265" horiz-adv-x="1151" 
d="M468 1660v-130h-154v130h154zM838 1660v-130h-154v130h154z" />
    <glyph glyph-name="glyph266" horiz-adv-x="1043" 
d="M268 688l-139.001 0.00195312c0 111.333 25.167 186.166 75.5 224.499s148.833 57.5 295.5 57.5c159.333 0 267 -23.5 323 -70.5s84 -136.5 84 -268.5v-631h-140l11 103l-3 1c-53.333 -78.667 -161.666 -118 -324.999 -118c-241.333 0 -362 97 -362 291
c0 115.333 27 195 81 239s151.667 66 293 66c168 0 268.667 -33 302 -99l3 1v116c0 109.333 -15 180.166 -45 212.499s-95.667 48.5 -197 48.5c-172 0 -258 -48.333 -258 -145c0 -4.66699 0.333008 -14 1 -28zM492.999 466.002
c-107.333 0 -177.166 -11.168 -209.499 -33.501s-48.5 -70.166 -48.5 -143.499c0 -76.667 16.167 -127 48.5 -151s101.166 -36 206.499 -36c189.333 0 284 58.667 284 176c0 74 -19.167 123.833 -57.5 149.5s-112.833 38.5 -223.5 38.5z" />
    <glyph glyph-name="glyph267" horiz-adv-x="385" 
d="M138 1256v-130h-154v130h154zM402 1256v-130h-154v130h154z" />
  </font>
</defs>
</svg>
